<svg
  width="157"
  height="59"
  viewBox="0 0 157 59"
  fill="none"
  xmlns="http://www.w3.org/2000/svg"
>
  <path
    d="M30.1387 58.6519L29.8497 58.3707L0 29.3284L0.288966 29.0472L30.1387 0L30.4277 0.281197L60.2723 29.3235L59.9833 29.6047L30.1387 58.6519ZM1.16094 29.3284L30.1387 57.5271L59.1164 29.3284L30.1387 1.12972L1.16094 29.3284Z"
    fill="white"
  />
  <path
    d="M30.1386 46.6985C20.2935 46.6985 12.2886 38.9039 12.2886 29.3284C12.2886 19.7479 20.2985 11.9583 30.1386 11.9583C39.9787 11.9583 47.9886 19.7529 47.9886 29.3284C47.9886 38.9039 39.9787 46.6985 30.1386 46.6985ZM30.1386 12.8068C20.7801 12.8068 13.1656 20.2166 13.1656 29.3235C13.1656 38.4303 20.7801 45.8401 30.1386 45.8401C39.497 45.8401 47.1116 38.4303 47.1116 29.3235C47.1116 20.2166 39.497 12.8068 30.1386 12.8068Z"
    fill="white"
  />
  <path
    d="M20.6382 32.4166C20.4709 32.5548 20.3188 32.6732 20.187 32.7817C20.0552 32.8902 19.8778 33.0037 19.6547 33.1073C19.4367 33.2109 19.2238 33.2898 19.0159 33.3392C18.8081 33.3885 18.5191 33.4181 18.149 33.4181C17.4545 33.4181 16.8816 33.1912 16.4254 32.7373C15.9691 32.2834 15.741 31.7112 15.741 31.0254C15.741 30.4581 15.8576 29.9993 16.0908 29.6491C16.324 29.2988 16.6586 29.0225 17.0945 28.8203C17.5356 28.6131 18.0628 28.47 18.6763 28.3861C19.2897 28.3072 19.9487 28.2431 20.6585 28.1937V28.1543C20.6585 27.7349 20.4962 27.4439 20.1819 27.2811C19.8625 27.1183 19.386 27.0394 18.7472 27.0394C18.4583 27.0394 18.1237 27.0887 17.7384 27.1923C17.3531 27.2959 16.9779 27.4241 16.6079 27.5869H16.4V25.737C16.6434 25.6679 17.0337 25.589 17.5762 25.4952C18.1186 25.4015 18.6611 25.3571 19.2136 25.3571C20.5672 25.3571 21.5507 25.5791 22.1692 26.0132C22.7877 26.4523 23.0969 27.1183 23.0969 28.0161V33.2208H20.6483V32.4166H20.6382ZM20.6382 31.2277V29.6441C20.2276 29.6836 19.893 29.7181 19.6395 29.7477C19.386 29.7773 19.1325 29.8365 18.8892 29.9204C18.6763 29.9944 18.509 30.1029 18.3924 30.2509C18.2758 30.394 18.2149 30.5913 18.2149 30.833C18.2149 31.1882 18.3163 31.4349 18.509 31.5681C18.7067 31.7013 18.9956 31.7654 19.3809 31.7654C19.5939 31.7654 19.8068 31.721 20.0298 31.6273C20.258 31.5336 20.4608 31.3954 20.6382 31.2277Z"
    fill="white"
  />
  <path
    d="M28.4657 33.4224C27.8168 33.4224 27.2236 33.3434 26.6812 33.1856C26.1438 33.0277 25.6723 32.781 25.2769 32.4505C24.8865 32.12 24.5773 31.7056 24.3593 31.2073C24.1413 30.7041 24.0298 30.1171 24.0298 29.4363C24.0298 28.7062 24.1464 28.0846 24.3897 27.5715C24.628 27.0584 24.9474 26.6391 25.358 26.3086C25.7484 25.9928 26.2097 25.756 26.742 25.608C27.2743 25.4551 27.8269 25.3811 28.3998 25.3811C28.8358 25.3811 29.2667 25.4304 29.7027 25.5291C30.1386 25.6228 30.5746 25.7807 31.0106 25.9928V28.0402H30.6963C30.6 27.9514 30.4783 27.8478 30.3364 27.7392C30.1944 27.6307 30.0372 27.5271 29.8699 27.4383C29.6925 27.3446 29.4897 27.2607 29.2667 27.1966C29.0436 27.1324 28.7901 27.0979 28.5164 27.0979C27.8877 27.0979 27.4061 27.31 27.0614 27.7343C26.7167 28.1586 26.5443 28.7259 26.5443 29.4412C26.5443 30.2059 26.7268 30.7781 27.0918 31.1531C27.4568 31.528 27.9435 31.7155 28.5519 31.7155C28.8611 31.7155 29.1298 31.6809 29.363 31.6119C29.5962 31.5477 29.799 31.4639 29.9663 31.3701C30.1285 31.2764 30.2704 31.1777 30.387 31.0741C30.5036 30.9755 30.605 30.8817 30.6862 30.8028H31.0005V32.8402C30.8585 32.8994 30.6963 32.9685 30.5138 33.0425C30.3313 33.1165 30.1437 33.1806 29.9511 33.23C29.7128 33.2941 29.4897 33.3434 29.2819 33.373C29.0842 33.4026 28.8053 33.4224 28.4657 33.4224Z"
    fill="white"
  />
  <path
    d="M41.6922 33.2253V29.402C41.6922 29.027 41.6821 28.7064 41.6719 28.4498C41.6567 28.1933 41.6162 27.9812 41.5452 27.8184C41.4742 27.6556 41.3678 27.5372 41.2157 27.4632C41.0687 27.3892 40.8608 27.3497 40.5921 27.3497C40.4046 27.3497 40.222 27.3892 40.0395 27.4681C39.857 27.547 39.6543 27.6605 39.4413 27.8085V33.2302H36.9927V29.402C36.9927 29.032 36.9826 28.7162 36.9674 28.4498C36.9522 28.1884 36.9065 27.9762 36.8356 27.8134C36.7646 27.6506 36.6581 27.5322 36.506 27.4582C36.359 27.3842 36.1512 27.3448 35.8926 27.3448C35.6898 27.3448 35.4972 27.3892 35.3045 27.4829C35.1119 27.5766 34.9243 27.6802 34.7418 27.8036V33.2253H32.2932V25.5836H34.7418V26.4272C35.1423 26.0967 35.5175 25.8352 35.8723 25.6527C36.2272 25.4652 36.6226 25.3715 37.0688 25.3715C37.5504 25.3715 37.9712 25.4849 38.3362 25.7069C38.7012 25.9289 38.98 26.2595 39.1676 26.6985C39.639 26.2743 40.0852 25.9437 40.5009 25.7168C40.9166 25.4899 41.3424 25.3715 41.7683 25.3715C42.1333 25.3715 42.4577 25.4307 42.7467 25.5441C43.0357 25.6576 43.279 25.8253 43.4818 26.0523C43.6998 26.2989 43.8671 26.59 43.9735 26.9254C44.0851 27.2609 44.1408 27.7049 44.1408 28.2476V33.2203H41.6922V33.2253Z"
    fill="white"
  />
  <path
    d="M68.86 18.5193L68.3024 20.3002H67.0857L69.1541 14.0152H70.6598L72.7586 20.3002H71.4912L70.9082 18.5193H68.86ZM70.7104 17.651L70.2035 16.1019C70.0767 15.7221 69.9754 15.2929 69.879 14.9278H69.8588C69.7624 15.2929 69.6661 15.7319 69.5546 16.1019L69.0578 17.651H70.7104Z"
    fill="white"
  />
  <path
    d="M73.3821 19.2349C73.6407 19.3928 74.1476 19.5703 74.5684 19.5703C75.0855 19.5703 75.3187 19.3582 75.3187 19.0573C75.3187 18.7514 75.1261 18.5985 74.5532 18.3962C73.6407 18.1002 73.2706 17.6118 73.2706 17.0741C73.2706 16.27 73.9499 15.6583 75.0348 15.6583C75.5519 15.6583 76.0031 15.7816 76.2819 15.9296L76.0437 16.7337C75.851 16.6202 75.4708 16.4722 75.0551 16.4722C74.6343 16.4722 74.4011 16.6794 74.4011 16.9557C74.4011 17.2468 74.6191 17.375 75.2173 17.5921C76.069 17.8832 76.4543 18.3025 76.4644 18.9734C76.4644 19.8022 75.8054 20.3991 74.5684 20.3991C74.0006 20.3991 73.4937 20.2709 73.1489 20.0834L73.3821 19.2349Z"
    fill="white"
  />
  <path
    d="M77.2352 19.2349C77.4937 19.3928 78.0007 19.5703 78.4214 19.5703C78.9385 19.5703 79.1717 19.3582 79.1717 19.0573C79.1717 18.7514 78.9791 18.5985 78.4062 18.3962C77.4937 18.1002 77.1236 17.6118 77.1236 17.0741C77.1236 16.27 77.8029 15.6583 78.8878 15.6583C79.4049 15.6583 79.8561 15.7816 80.1349 15.9296L79.8967 16.7337C79.704 16.6202 79.3238 16.4722 78.9081 16.4722C78.4873 16.4722 78.2541 16.6794 78.2541 16.9557C78.2541 17.2468 78.4721 17.375 79.0703 17.5921C79.922 17.8832 80.3073 18.3025 80.3174 18.9734C80.3174 19.8022 79.6584 20.3991 78.4214 20.3991C77.8536 20.3991 77.3467 20.2709 77.002 20.0834L77.2352 19.2349Z"
    fill="white"
  />
  <path
    d="M83.1767 20.4041C81.8637 20.4041 80.8396 19.5259 80.8396 18.0657C80.8396 16.5758 81.8434 15.6583 83.2527 15.6583C84.6418 15.6583 85.5746 16.6104 85.5746 17.9917C85.5746 19.6592 84.368 20.409 83.1868 20.409H83.1767V20.4041ZM83.2122 19.5703C83.8814 19.5703 84.3528 18.934 84.3528 18.0114C84.3528 17.301 84.0284 16.4821 83.2223 16.4821C82.3909 16.4821 82.0512 17.2764 82.0512 18.0312C82.0512 18.9093 82.5024 19.5703 83.202 19.5703H83.2122Z"
    fill="white"
  />
  <path
    d="M89.828 20.1574C89.5796 20.2709 89.0929 20.3893 88.5048 20.3893C87.0498 20.3893 86.1018 19.4766 86.1018 18.0657C86.1018 16.7041 87.06 15.6484 88.6974 15.6484C89.1284 15.6484 89.5694 15.7421 89.8381 15.8556L89.6252 16.7238C89.4325 16.6301 89.1537 16.5462 88.7329 16.5462C87.8305 16.5462 87.2982 17.1876 87.3033 18.0213C87.3033 18.9537 87.9269 19.4865 88.7329 19.4865C89.1334 19.4865 89.4325 19.4026 89.6607 19.3089L89.828 20.1574Z"
    fill="white"
  />
  <path
    d="M91.1408 15.1057C90.7454 15.1057 90.4868 14.8245 90.4868 14.4891C90.4868 14.1339 90.7555 13.8625 91.1459 13.8625C91.5464 13.8625 91.7998 14.1339 91.8049 14.4891C91.8049 14.8245 91.5464 15.1057 91.1459 15.1057H91.1408ZM90.5527 20.3005V15.7569H91.7339V20.3005H90.5527Z"
    fill="white"
  />
  <path
    d="M96.4844 19.2102C96.4844 19.6197 96.5046 20.0193 96.5604 20.3005H95.4958L95.4096 19.7973H95.3792C95.1004 20.1525 94.6137 20.4041 94.0003 20.4041C93.0624 20.4041 92.5352 19.743 92.5352 19.0524C92.5352 17.9128 93.5795 17.3257 95.3032 17.3356V17.2616C95.3032 16.9656 95.1815 16.4673 94.3551 16.4673C93.8938 16.4673 93.4173 16.6054 93.0979 16.8028L92.8698 16.0578C93.2145 15.8507 93.8178 15.6583 94.5579 15.6583C96.0535 15.6583 96.4844 16.5808 96.4844 17.5773V19.2102ZM95.3386 18.0805C94.5072 18.0706 93.7113 18.2384 93.7113 18.929C93.7113 19.378 94.0104 19.5802 94.3805 19.5802C94.857 19.5802 95.1967 19.2793 95.3082 18.9537C95.3386 18.8698 95.3386 18.786 95.3386 18.7021V18.0805Z"
    fill="white"
  />
  <path
    d="M98.8823 14.5927V15.7569H100.003V16.6153H98.8823V18.6133C98.8823 19.1708 99.0344 19.452 99.4856 19.452C99.6985 19.452 99.81 19.4421 99.9469 19.4076L99.9672 20.2758C99.7948 20.34 99.4805 20.3992 99.1155 20.3992C98.6744 20.3992 98.3196 20.261 98.1016 20.0242C97.843 19.7628 97.7264 19.3434 97.7264 18.7465V16.6203H97.0674V15.7619H97.7264V14.9133L98.8823 14.5927Z"
    fill="white"
  />
  <path
    d="M101.336 15.1057C100.94 15.1057 100.682 14.8245 100.682 14.4891C100.682 14.1339 100.951 13.8625 101.341 13.8625C101.741 13.8625 101.995 14.1339 102 14.4891C102 14.8245 101.741 15.1057 101.341 15.1057H101.336ZM100.748 20.3005V15.7569H101.929V20.3005H100.748Z"
    fill="white"
  />
  <path
    d="M105.102 20.4041C103.789 20.4041 102.765 19.5259 102.765 18.0657C102.765 16.5758 103.769 15.6583 105.178 15.6583C106.568 15.6583 107.5 16.6104 107.5 17.9917C107.5 19.6592 106.294 20.409 105.113 20.409H105.102V20.4041ZM105.138 19.5703C105.807 19.5703 106.279 18.934 106.279 18.0114C106.279 17.301 105.954 16.4821 105.148 16.4821C104.317 16.4821 103.977 17.2764 103.977 18.0312C103.977 18.9093 104.428 19.5703 105.128 19.5703H105.138Z"
    fill="white"
  />
  <path
    d="M108.322 17.1086C108.322 16.5857 108.301 16.1467 108.281 15.7569H109.305L109.361 16.4377H109.391C109.604 16.0825 110.111 15.6533 110.887 15.6533C111.703 15.6533 112.545 16.1664 112.545 17.602V20.2955H111.363V17.7302C111.363 17.079 111.115 16.5808 110.471 16.5808C110 16.5808 109.675 16.9064 109.553 17.2517C109.513 17.3454 109.498 17.4836 109.498 17.6168V20.2906H108.316V17.1086H108.322Z"
    fill="white"
  />
  <path
    d="M115.632 20.3005V16.6153H114.998V15.7569H115.632V15.5596C115.632 14.9725 115.794 14.3855 116.2 14.0105C116.545 13.6948 117.016 13.5715 117.416 13.5715C117.731 13.5715 117.984 13.6257 118.162 13.6849L118.086 14.5729C117.949 14.5285 117.797 14.4891 117.579 14.4891C116.996 14.4891 116.803 14.9627 116.803 15.5251V15.7569H117.827V16.6153H116.813V20.3005H115.632Z"
    fill="white"
  />
  <path
    d="M120.347 20.4041C119.034 20.4041 118.01 19.5259 118.01 18.0657C118.01 16.5758 119.014 15.6583 120.423 15.6583C121.812 15.6583 122.745 16.6104 122.745 17.9917C122.745 19.6592 121.538 20.409 120.357 20.409H120.347V20.4041ZM120.382 19.5703C121.052 19.5703 121.523 18.934 121.523 18.0114C121.523 17.301 121.199 16.4821 120.392 16.4821C119.561 16.4821 119.221 17.2764 119.221 18.0312C119.221 18.9093 119.673 19.5703 120.372 19.5703H120.382Z"
    fill="white"
  />
  <path
    d="M123.566 17.2221C123.566 16.6055 123.556 16.1615 123.525 15.7569H124.539L124.59 16.6153H124.62C124.849 15.9789 125.396 15.6533 125.903 15.6533C126.02 15.6533 126.086 15.6632 126.182 15.6829V16.7534C126.075 16.7337 125.969 16.7239 125.827 16.7239C125.269 16.7239 124.879 17.0692 124.772 17.5921C124.752 17.6957 124.742 17.8141 124.742 17.9374V20.2955H123.561V17.2221H123.566Z"
    fill="white"
  />
  <path
    d="M72.1959 30.4729C71.9171 30.6012 71.3037 30.7541 70.5179 30.7541C68.4698 30.7541 67.2227 29.506 67.2227 27.5919C67.2227 25.5199 68.708 24.2816 70.6801 24.2816C71.4558 24.2816 72.0033 24.4296 72.2415 24.553L71.9931 25.4656C71.6839 25.3324 71.253 25.2239 70.7257 25.2239C69.4127 25.2239 68.4647 26.0231 68.4647 27.5376C68.4647 28.9189 69.291 29.7921 70.7156 29.7921C71.1871 29.7921 71.6839 29.6984 71.9982 29.5701L72.1959 30.4729Z"
    fill="white"
  />
  <path
    d="M74.8979 30.764C73.5848 30.764 72.5608 29.8859 72.5608 28.4256C72.5608 26.9358 73.5646 26.0182 74.9739 26.0182C76.363 26.0182 77.2958 26.9703 77.2958 28.3516C77.2958 30.0191 76.0892 30.7689 74.908 30.7689H74.8979V30.764ZM74.9384 29.9352C75.6076 29.9352 76.0791 29.2988 76.0791 28.3763C76.0791 27.6659 75.7546 26.847 74.9486 26.847C74.1172 26.847 73.7775 27.6412 73.7775 28.396C73.7775 29.2741 74.2287 29.9352 74.9283 29.9352H74.9384Z"
    fill="white"
  />
  <path
    d="M78.1172 27.4735C78.1172 26.9506 78.0969 26.5115 78.0767 26.1218H79.0855L79.1413 26.7927H79.1717C79.3897 26.4375 79.8155 26.0182 80.6115 26.0182C81.2249 26.0182 81.7014 26.3536 81.9042 26.8568H81.9245C82.0867 26.6052 82.2794 26.4178 82.4923 26.2895C82.761 26.1119 83.0601 26.0182 83.4504 26.0182C84.2159 26.0182 85.0017 26.5312 85.0017 27.9866V30.6604H83.8509V28.1493C83.8509 27.3946 83.5822 26.9456 83.0195 26.9456C82.619 26.9456 82.3199 27.2268 82.1982 27.5524C82.1577 27.656 82.1425 27.804 82.1425 27.9323V30.6555H80.9917V28.026C80.9917 27.3896 80.7331 26.9456 80.1856 26.9456C79.7446 26.9456 79.4455 27.2811 79.3339 27.587C79.2934 27.7103 79.2782 27.8386 79.2782 27.9718V30.6555H78.1274V27.4735H78.1172Z"
    fill="white"
  />
  <path
    d="M86.0967 27.6314C86.0967 27.0344 86.0764 26.551 86.0562 26.1218H87.0903L87.1461 26.8223H87.1664C87.5111 26.3092 88.0586 26.0182 88.7684 26.0182C89.8431 26.0182 90.7354 26.9111 90.7354 28.3319C90.7354 29.9747 89.6708 30.764 88.6062 30.764C88.0232 30.764 87.5314 30.5223 87.2931 30.1572H87.2729V32.5054H86.0916V27.6314H86.0967ZM87.2779 28.7561C87.2779 28.8696 87.2881 28.9683 87.3083 29.0719C87.4351 29.5356 87.8457 29.876 88.3527 29.876C89.0979 29.876 89.539 29.2692 89.539 28.3763C89.539 27.5722 89.1385 26.921 88.378 26.921C87.8913 26.921 87.4401 27.2663 87.3134 27.7695C87.2931 27.8632 87.2729 27.9668 87.2729 28.0605V28.7561H87.2779Z"
    fill="white"
  />
  <path
    d="M95.7389 29.2988C95.7389 29.8415 95.7592 30.2854 95.7795 30.6604H94.7554L94.6997 29.9796H94.6693C94.4665 30.2953 94.0102 30.764 93.1636 30.764C92.322 30.764 91.5464 30.2706 91.5464 28.7857V26.1168H92.7225V28.5884C92.7225 29.3432 92.9709 29.8267 93.5945 29.8267C94.071 29.8267 94.3803 29.5109 94.4969 29.21C94.5425 29.1163 94.5628 28.988 94.5628 28.8548V26.1119H95.744V29.2988H95.7389Z"
    fill="white"
  />
  <path
    d="M98.2231 24.9526V26.1168H99.3435V26.9752H98.2231V28.9683C98.2231 29.5257 98.3752 29.8069 98.8264 29.8069C99.0393 29.8069 99.1508 29.7971 99.2877 29.7625L99.308 30.6308C99.1356 30.6949 98.8213 30.7492 98.4563 30.7492C98.0153 30.7492 97.6604 30.6111 97.4424 30.3743C97.1839 30.1128 97.0672 29.6935 97.0672 29.0965V26.9703H96.4082V26.1119H97.0672V25.2634L98.2231 24.9526Z"
    fill="white"
  />
  <path
    d="M100.677 25.4656C100.281 25.4656 100.023 25.1844 100.023 24.849C100.023 24.4938 100.291 24.2224 100.682 24.2224C101.082 24.2224 101.336 24.4938 101.341 24.849C101.341 25.1844 101.082 25.4656 100.682 25.4656H100.677ZM100.089 30.6604V26.1218H101.27V30.6604H100.089Z"
    fill="white"
  />
  <path
    d="M102.401 27.4735C102.401 26.9506 102.38 26.5115 102.36 26.1218H103.384L103.44 26.8026H103.47C103.683 26.4474 104.19 26.0182 104.966 26.0182C105.782 26.0182 106.624 26.5312 106.624 27.9668V30.6604H105.447V28.0951C105.447 27.4439 105.199 26.9506 104.555 26.9506C104.084 26.9506 103.759 27.2762 103.638 27.6215C103.597 27.7152 103.582 27.8534 103.582 27.9866V30.6604H102.401V27.4735Z"
    fill="white"
  />
  <path
    d="M111.962 29.9993C111.962 30.9514 111.759 31.6322 111.272 32.0614C110.796 32.4808 110.111 32.609 109.472 32.609C108.879 32.609 108.246 32.4808 107.845 32.244L108.104 31.3757C108.403 31.5434 108.9 31.721 109.462 31.721C110.228 31.721 110.806 31.3313 110.806 30.3496V29.9599H110.785C110.517 30.3595 110.05 30.6308 109.427 30.6308C108.266 30.6308 107.445 29.6984 107.445 28.4108C107.445 26.921 108.443 26.0132 109.564 26.0132C110.284 26.0132 110.694 26.3487 110.912 26.7236H110.932L110.978 26.1168H112.002C111.982 26.4227 111.962 26.7976 111.962 27.4241V29.9993ZM110.78 27.9372C110.78 27.8237 110.77 27.7251 110.74 27.6313C110.613 27.212 110.278 26.8963 109.782 26.8963C109.123 26.8963 108.631 27.4537 108.631 28.3812C108.631 29.1557 109.031 29.7823 109.772 29.7823C110.213 29.7823 110.598 29.5011 110.73 29.0817C110.77 28.9683 110.775 28.8104 110.775 28.6821V27.9372H110.78Z"
    fill="white"
  />
  <path
    d="M120.423 28.0951C120.382 27.286 120.337 26.3142 120.347 25.4558H120.316C120.103 26.2204 119.84 27.0689 119.551 27.8632L118.603 30.5864H117.7L116.839 27.9027C116.59 27.0985 116.362 26.2451 116.185 25.4607H116.164C116.134 26.2796 116.098 27.2811 116.048 28.1395L115.906 30.6653H114.806L115.237 24.3803H116.788L117.629 26.9061C117.858 27.6412 118.06 28.3911 118.223 29.0867H118.253C118.425 28.4059 118.648 27.6313 118.897 26.8963L119.789 24.3803H121.32L121.695 30.6653H120.544L120.423 28.0951Z"
    fill="white"
  />
  <path
    d="M126.365 29.5701C126.365 29.9796 126.385 30.3792 126.441 30.6604H125.376L125.29 30.1572H125.259C124.981 30.5124 124.494 30.764 123.88 30.764C122.943 30.764 122.415 30.1029 122.415 29.4123C122.415 28.2727 123.46 27.6856 125.183 27.6955V27.6215C125.183 27.3255 125.062 26.8272 124.235 26.8272C123.774 26.8272 123.297 26.9654 122.978 27.1627L122.75 26.4178C123.095 26.2106 123.698 26.0182 124.438 26.0182C125.934 26.0182 126.365 26.9407 126.365 27.9372V29.5701ZM125.214 28.4404C124.382 28.4305 123.586 28.5983 123.586 29.2889C123.586 29.7379 123.885 29.9401 124.256 29.9401C124.732 29.9401 125.072 29.6392 125.183 29.3136C125.214 29.2297 125.214 29.1459 125.214 29.062V28.4404Z"
    fill="white"
  />
  <path
    d="M130.897 30.5223C130.648 30.6357 130.161 30.7541 129.573 30.7541C128.118 30.7541 127.17 29.8415 127.17 28.4305C127.17 27.069 128.129 26.0132 129.766 26.0132C130.197 26.0132 130.638 26.107 130.907 26.2204L130.694 27.0887C130.501 26.995 130.222 26.9111 129.802 26.9111C128.899 26.9111 128.367 27.5524 128.372 28.3861C128.372 29.3185 128.995 29.8513 129.802 29.8513C130.202 29.8513 130.501 29.7675 130.729 29.6737L130.897 30.5223Z"
    fill="white"
  />
  <path
    d="M131.627 24.03H132.808V26.7335H132.823C132.965 26.5214 133.168 26.3438 133.406 26.2204C133.644 26.0872 133.923 26.0132 134.222 26.0132C135.018 26.0132 135.85 26.5263 135.85 27.9816V30.6555H134.668V28.1C134.668 27.4488 134.42 26.9456 133.766 26.9456C133.305 26.9456 132.98 27.2416 132.848 27.5869C132.808 27.6905 132.803 27.8089 132.803 27.9323V30.6555H131.622V24.03H131.627Z"
    fill="white"
  />
  <path
    d="M137.548 25.4656C137.152 25.4656 136.894 25.1844 136.894 24.849C136.894 24.4938 137.162 24.2224 137.553 24.2224C137.953 24.2224 138.207 24.4938 138.212 24.849C138.212 25.1844 137.953 25.4656 137.553 25.4656H137.548ZM136.96 30.6604V26.1218H138.141V30.6604H136.96Z"
    fill="white"
  />
  <path
    d="M139.272 27.4735C139.272 26.9506 139.251 26.5115 139.231 26.1218H140.255L140.311 26.8026H140.341C140.554 26.4474 141.061 26.0182 141.837 26.0182C142.653 26.0182 143.494 26.5312 143.494 27.9668V30.6604H142.313V28.0951C142.313 27.4439 142.065 26.9506 141.421 26.9506C140.95 26.9506 140.625 27.2762 140.503 27.6215C140.463 27.7152 140.448 27.8534 140.448 27.9866V30.6604H139.266V27.4735H139.272Z"
    fill="white"
  />
  <path
    d="M145.441 28.7117C145.472 29.5307 146.131 29.8859 146.881 29.8859C147.429 29.8859 147.809 29.802 148.174 29.6787L148.346 30.4631C147.946 30.6308 147.388 30.7541 146.719 30.7541C145.203 30.7541 144.316 29.8513 144.316 28.4601C144.316 27.2022 145.102 26.0182 146.597 26.0182C148.113 26.0182 148.61 27.2318 148.61 28.2283C148.61 28.4404 148.59 28.6131 148.569 28.7117H145.441ZM147.495 27.9076C147.505 27.4883 147.312 26.7976 146.526 26.7976C145.796 26.7976 145.492 27.439 145.441 27.9076H147.495Z"
    fill="white"
  />
  <path
    d="M149.411 27.582C149.411 26.9654 149.401 26.5214 149.37 26.1168H150.384L150.435 26.9752H150.465C150.694 26.3388 151.241 26.0132 151.748 26.0132C151.865 26.0132 151.931 26.0231 152.027 26.0428V27.1133C151.92 27.0936 151.814 27.0838 151.672 27.0838C151.114 27.0838 150.724 27.4291 150.617 27.952C150.597 28.0556 150.587 28.174 150.587 28.2973V30.6554H149.406V27.582H149.411Z"
    fill="white"
  />
  <path
    d="M153.634 26.1218L154.465 28.5539C154.561 28.8351 154.668 29.1804 154.734 29.432H154.764C154.83 29.1804 154.916 28.8351 155.013 28.544L155.743 26.1218H157L155.829 29.2149C155.185 30.912 154.754 31.6668 154.212 32.1354C153.74 32.5252 153.264 32.6781 152.975 32.7126L152.706 31.7506C152.909 31.7062 153.147 31.6026 153.385 31.4349C153.603 31.2968 153.872 31.0255 154.039 30.7196C154.08 30.6357 154.105 30.5716 154.105 30.5124C154.105 30.468 154.095 30.3989 154.049 30.2904L152.336 26.1218H153.634Z"
    fill="white"
  />
  <path
    d="M68.5763 43.4968L66.7715 38.1146H67.5421L68.4039 40.7687C68.6422 41.4939 68.85 42.15 68.997 42.7815H69.0122C69.1694 42.1599 69.3975 41.4791 69.6459 40.7786L70.5838 38.1195H71.3493L69.3722 43.5018H68.5763V43.4968Z"
    fill="white"
  />
  <path d="M72.6572 38.1097V43.4919H71.9424V38.1097H72.6572Z" fill="white" />
  <path
    d="M74.9587 38.7017H73.2756V38.1097H77.3719V38.7017H75.6786V43.4968H74.9537V38.7017H74.9587Z"
    fill="white"
  />
  <path
    d="M81.3768 42.6481C81.6962 42.8405 82.1626 42.9984 82.6594 42.9984C83.3895 42.9984 83.8153 42.6235 83.8153 42.0808C83.8153 41.5776 83.5213 41.2915 82.771 41.0103C81.8686 40.6995 81.3109 40.2456 81.3109 39.4859C81.3109 38.6473 82.0257 38.0257 83.1005 38.0257C83.6683 38.0257 84.0789 38.1539 84.3223 38.2871L84.1246 38.8545C83.942 38.7558 83.577 38.5979 83.0751 38.5979C82.3198 38.5979 82.0308 39.037 82.0308 39.402C82.0308 39.9052 82.3654 40.1519 83.1309 40.443C84.0688 40.7932 84.5403 41.2323 84.5403 42.0266C84.5403 42.8603 83.9066 43.5756 82.6037 43.5756C82.0714 43.5756 81.4884 43.4227 81.1943 43.2303L81.3768 42.6481Z"
    fill="white"
  />
  <path
    d="M86.3452 38.5191V39.6291H87.3794V40.1668H86.3452V42.2536C86.3452 42.7322 86.4821 43.0035 86.8877 43.0035C87.0753 43.0035 87.2172 42.9788 87.3085 42.9541L87.3439 43.482C87.202 43.5363 86.984 43.5757 86.7052 43.5757C86.3706 43.5757 86.0968 43.4721 85.9245 43.2797C85.7217 43.0725 85.6456 42.7272 85.6456 42.2734V40.1668H85.0322V39.6291H85.6456V38.7017L86.3452 38.5191Z"
    fill="white"
  />
  <path
    d="M91.5162 42.4411C91.5162 42.8407 91.5263 43.1909 91.5516 43.4968H90.9129L90.8723 42.8653H90.8571C90.6695 43.1761 90.2488 43.5856 89.5441 43.5856C88.9205 43.5856 88.1753 43.2501 88.1753 41.8935V39.634H88.8952V41.7751C88.8952 42.5101 89.1233 43.0035 89.7824 43.0035C90.269 43.0035 90.6036 42.6779 90.7354 42.3622C90.776 42.2586 90.8013 42.1303 90.8013 42.002V39.6291H91.5212V42.4411H91.5162Z"
    fill="white"
  />
  <path
    d="M96.1497 37.8235V42.4953C96.1497 42.8407 96.1598 43.2304 96.1801 43.4919H95.5312L95.5008 42.8209H95.4856C95.2625 43.2501 94.7809 43.5807 94.132 43.5807C93.1738 43.5807 92.4337 42.7913 92.4337 41.6172C92.4235 40.3296 93.2448 39.5403 94.2131 39.5403C94.8215 39.5403 95.2321 39.8215 95.4146 40.1323H95.4298V37.8235H96.1497ZM95.4247 41.2028C95.4247 41.114 95.4146 40.9956 95.3943 40.9068C95.2879 40.4579 94.8924 40.0928 94.35 40.0928C93.6048 40.0928 93.1586 40.7342 93.1586 41.5876C93.1586 42.372 93.5541 43.0183 94.3348 43.0183C94.8215 43.0183 95.2625 42.7075 95.3943 42.1796C95.4197 42.081 95.4247 41.9872 95.4247 41.8738V41.2028Z"
    fill="white"
  />
  <path
    d="M97.7515 41.6912C97.7667 42.6433 98.3902 43.0331 99.1152 43.0331C99.6323 43.0331 99.9415 42.9443 100.215 42.8357L100.337 43.3389C100.083 43.4524 99.6475 43.5807 99.0138 43.5807C97.792 43.5807 97.062 42.7963 97.062 41.632C97.062 40.4678 97.7667 39.5452 98.9276 39.5452C100.225 39.5452 100.57 40.6552 100.57 41.3656C100.57 41.5087 100.555 41.6222 100.545 41.6912H97.7515ZM99.8706 41.188C99.8807 40.7391 99.683 40.0435 98.8668 40.0435C98.1368 40.0435 97.8174 40.6996 97.7565 41.188H99.8706Z"
    fill="white"
  />
  <path
    d="M101.463 40.675C101.463 40.2754 101.453 39.9498 101.427 39.6291H102.066L102.107 40.2704H102.122C102.319 39.9054 102.781 39.5452 103.435 39.5452C103.982 39.5452 104.839 39.8659 104.839 41.193V43.5017H104.114V41.2719C104.114 40.6503 103.876 40.1274 103.197 40.1274C102.72 40.1274 102.35 40.453 102.228 40.8476C102.198 40.9364 102.178 41.0548 102.178 41.1732V43.4968H101.458V40.675H101.463Z"
    fill="white"
  />
  <path
    d="M106.862 38.5191V39.6291H107.896V40.1668H106.862V42.2536C106.862 42.7322 107.004 43.0035 107.404 43.0035C107.592 43.0035 107.734 42.9788 107.825 42.9541L107.855 43.482C107.719 43.5363 107.495 43.5757 107.217 43.5757C106.882 43.5757 106.608 43.4721 106.436 43.2797C106.228 43.0725 106.157 42.7272 106.157 42.2734V40.1668H105.544V39.6291H106.157V38.7017L106.862 38.5191Z"
    fill="white"
  />
  <path
    d="M114.34 43.3191C114.076 43.4473 113.554 43.5756 112.879 43.5756C111.318 43.5756 110.147 42.6185 110.147 40.8524C110.147 39.1652 111.323 38.0257 113.037 38.0257C113.726 38.0257 114.162 38.1687 114.35 38.2674L114.177 38.8347C113.909 38.7065 113.523 38.6127 113.062 38.6127C111.764 38.6127 110.902 39.4218 110.902 40.8327C110.902 42.1499 111.683 42.9984 113.026 42.9984C113.462 42.9984 113.904 42.9096 114.192 42.7764L114.34 43.3191Z"
    fill="white"
  />
  <path
    d="M115.211 37.8235H115.931V40.2359H115.947C116.063 40.0386 116.241 39.861 116.464 39.7426C116.677 39.6242 116.93 39.5452 117.204 39.5452C117.736 39.5452 118.593 39.8659 118.593 41.1979V43.4968H117.868V41.2768C117.868 40.6552 117.63 40.1274 116.95 40.1274C116.484 40.1274 116.114 40.448 115.982 40.8279C115.941 40.9266 115.931 41.0252 115.931 41.1634V43.4968H115.211V37.8235Z"
    fill="white"
  />
  <path
    d="M121.974 43.4968L121.918 43.0084H121.893C121.67 43.3143 121.244 43.5856 120.676 43.5856C119.87 43.5856 119.46 43.0331 119.46 42.4756C119.46 41.5432 120.311 41.0302 121.847 41.04V40.9611C121.847 40.6404 121.756 40.0682 120.945 40.0682C120.575 40.0682 120.19 40.1816 119.911 40.3543L119.749 39.8906C120.078 39.6834 120.555 39.5452 121.057 39.5452C122.273 39.5452 122.567 40.3494 122.567 41.1288V42.5743C122.567 42.9097 122.583 43.2353 122.633 43.5017H121.974V43.4968ZM121.868 41.5235C121.082 41.5087 120.185 41.6419 120.185 42.3917C120.185 42.8456 120.494 43.0627 120.864 43.0627C121.381 43.0627 121.711 42.742 121.822 42.4164C121.847 42.3424 121.863 42.2635 121.863 42.1944V41.5235H121.868Z"
    fill="white"
  />
  <path
    d="M123.728 40.892C123.728 40.3987 123.713 39.9991 123.698 39.6291H124.347L124.377 40.2902H124.393C124.687 39.8215 125.158 39.5403 125.802 39.5403C126.76 39.5403 127.485 40.3296 127.485 41.5038C127.485 42.8949 126.613 43.5807 125.68 43.5807C125.153 43.5807 124.697 43.3587 124.458 42.9739H124.443V45.0755H123.728V40.892ZM124.443 41.9231C124.443 42.0267 124.458 42.1204 124.474 42.2092C124.605 42.6976 125.041 43.0331 125.559 43.0331C126.324 43.0331 126.765 42.4263 126.765 41.5383C126.765 40.7638 126.344 40.1027 125.584 40.1027C125.092 40.1027 124.631 40.448 124.494 40.971C124.469 41.0598 124.443 41.1634 124.443 41.2571V41.9231Z"
    fill="white"
  />
  <path
    d="M129.274 38.5191V39.6291H130.309V40.1668H129.274V42.2536C129.274 42.7322 129.411 43.0035 129.817 43.0035C130.004 43.0035 130.146 42.9788 130.238 42.9541L130.268 43.482C130.126 43.5363 129.908 43.5757 129.629 43.5757C129.295 43.5757 129.021 43.4721 128.848 43.2797C128.646 43.0725 128.57 42.7272 128.57 42.2734V40.1668H127.951V39.6291H128.57V38.7017L129.274 38.5191Z"
    fill="white"
  />
  <path
    d="M131.475 41.6912C131.49 42.6433 132.113 43.0331 132.838 43.0331C133.355 43.0331 133.67 42.9443 133.938 42.8357L134.06 43.3389C133.807 43.4524 133.371 43.5807 132.737 43.5807C131.515 43.5807 130.785 42.7963 130.785 41.632C130.785 40.4678 131.49 39.5452 132.651 39.5452C133.949 39.5452 134.293 40.6552 134.293 41.3656C134.293 41.5087 134.278 41.6222 134.268 41.6912H131.475ZM133.594 41.188C133.604 40.7391 133.406 40.0435 132.59 40.0435C131.86 40.0435 131.541 40.6996 131.48 41.188H133.594Z"
    fill="white"
  />
  <path
    d="M135.191 40.8378C135.191 40.3839 135.18 39.9892 135.16 39.6291H135.794L135.819 40.3888H135.85C136.032 39.8708 136.468 39.5403 136.95 39.5403C137.031 39.5403 137.092 39.5502 137.153 39.565V40.226C137.076 40.2112 137.005 40.2014 136.904 40.2014C136.397 40.2014 136.032 40.5763 135.936 41.1042C135.921 41.2028 135.9 41.3114 135.9 41.4298V43.4919H135.186V40.8378H135.191Z"
    fill="white"
  />
</svg>
