<svg
  width="22"
  height="38"
  viewBox="0 0 22 38"
  fill="none"
  xmlns="http://www.w3.org/2000/svg"
>
  <path
    d="M13.5656 37.9258H7.46836C6.44992 37.9258 5.62146 37.0989 5.62146 36.0825V22.3567H2.06418C1.04575 22.3567 0.217285 21.5295 0.217285 20.5134V14.6318C0.217285 13.6154 1.04575 12.7885 2.06418 12.7885H5.62146V9.84326C5.62146 6.92293 6.54026 4.43834 8.27823 2.65854C10.024 0.870621 12.4638 -0.0742188 15.3338 -0.0742188L19.9839 -0.0666809C21.0006 -0.0649414 21.8276 0.761902 21.8276 1.77661V7.23749C21.8276 8.25394 20.9994 9.08078 19.9813 9.08078L16.8504 9.08194C15.8956 9.08194 15.6525 9.273 15.6005 9.33156C15.5148 9.42868 15.4128 9.70323 15.4128 10.4614V12.7882H19.746C20.0722 12.7882 20.3882 12.8685 20.6598 13.0199C21.2457 13.3466 21.61 13.9644 21.61 14.6321L21.6077 20.5137C21.6077 21.5295 20.7792 22.3564 19.7608 22.3564H15.4128V36.0825C15.4128 37.0989 14.5841 37.9258 13.5656 37.9258ZM7.85354 35.6981H13.1804V21.3593C13.1804 20.6807 13.7338 20.1287 14.4135 20.1287H19.3756L19.3776 15.0163H14.4133C13.7335 15.0163 13.1804 14.4643 13.1804 13.7856V10.4614C13.1804 9.59104 13.269 8.60126 13.9273 7.85733C14.7226 6.95801 15.9761 6.85422 16.8498 6.85422L19.5955 6.85306V2.16046L15.3321 2.1535C10.7197 2.1535 7.85354 5.10022 7.85354 9.84326V13.7856C7.85354 14.464 7.30046 15.0163 6.62072 15.0163H2.44937V20.1287H6.62072C7.30046 20.1287 7.85354 20.6807 7.85354 21.3593V35.6981ZM19.9795 2.16104H19.9798H19.9795Z"
    fill="white"
  />
</svg>
