<svg
  width="160"
  height="160"
  viewBox="0 0 160 160"
  fill="none"
  xmlns="http://www.w3.org/2000/svg"
>
  <path
    d="M153.312 0.3125H6.6875C3.16133 0.3125 0.3125 3.16133 0.3125 6.6875V153.312C0.3125 156.839 3.16133 159.688 6.6875 159.688H153.312C156.839 159.688 159.688 156.839 159.688 153.312V6.6875C159.688 3.16133 156.839 0.3125 153.312 0.3125ZM131 41.2918L122.872 49.0812C122.155 49.6191 121.816 50.4957 121.955 51.3523V108.668C121.816 109.544 122.155 110.421 122.872 110.939L130.841 118.728V120.461H90.8375V118.808L99.0652 110.819C99.882 110.002 99.882 109.763 99.882 108.548V62.1699L76.9719 120.262H73.884L47.2285 62.1699V101.117C46.9895 102.751 47.5672 104.404 48.7227 105.58L59.4406 118.549V120.282H29V118.549L39.718 105.58C40.2827 104.996 40.7029 104.289 40.9451 103.514C41.1872 102.739 41.2446 101.918 41.1125 101.117V56.0938C41.2519 54.8387 40.7738 53.6234 39.8176 52.7668L30.2949 41.2918V39.5586H59.8789L82.7094 89.6621L102.811 39.5984H131V41.2918Z"
    fill="black"
  />
</svg>
