<svg
  width="42"
  height="107"
  viewBox="0 0 42 107"
  fill="none"
  xmlns="http://www.w3.org/2000/svg"
>
  <g clip-path="url(#rightSingle)">
    <path
      d="M15.3119 37.9319L14.3562 38.9307C14.0578 39.2451 13.8933 39.6633 13.8933 40.1103C13.8933 40.5571 14.0578 40.9758 14.3562 41.2902L25.1831 52.6844L14.3442 64.0918C14.0457 64.4057 13.8816 64.8244 13.8816 65.2711C13.8816 65.7179 14.0457 66.1369 14.3442 66.451L15.294 67.4501C15.9116 68.1006 16.9177 68.1006 17.5353 67.4501L30.4867 53.8682C30.7849 53.5544 30.9951 53.1361 30.9951 52.6854L30.9951 52.6802C30.9951 52.2332 30.7847 51.815 30.4867 51.5011L17.5704 37.9319C17.2722 37.6175 16.8628 37.445 16.4383 37.4445C16.0136 37.4445 15.6099 37.6175 15.3119 37.9319Z"
      fill="#0085B9"
    />
  </g>
  <defs>
    <clipPath id="rightSingle">
      <rect
        x="41.5"
        y="0.5"
        width="106"
        height="41"
        transform="rotate(90 41.5 0.5)"
        fill="white"
      />
    </clipPath>
  </defs>
</svg>
