<svg width="300" height="300" viewBox="0 0 300 300" fill="none" xmlns="http://www.w3.org/2000/svg">
<rect width="300" height="300" fill="#151515"/>
<g clip-path="url(#clip0)">
<path d="M65.7794 171.654C65.7709 171.783 65.7557 171.911 65.7341 172.038C65.4596 171.95 65.2208 171.883 64.9903 171.8C59.4174 169.788 53.8446 167.775 48.2717 165.761L34.2554 160.695C31.3638 159.65 28.4763 158.595 25.5778 157.573C25.1372 157.416 25 157.216 25 156.749C25.0201 152.422 25.0201 148.094 25 143.766C25 143.349 25.0878 143.137 25.5215 142.981C38.7587 138.215 51.9919 133.439 65.2208 128.652C65.3677 128.6 65.5187 128.556 65.7327 128.487C65.752 128.723 65.7808 128.912 65.7808 129.102C65.7808 133.202 65.7726 137.301 65.7959 141.401C65.7959 141.88 65.6367 142.056 65.203 142.204C57.6265 144.779 50.0531 147.367 42.483 149.966C42.2524 150.046 42.0246 150.133 41.6142 150.282L53.1204 154.213L65.1495 158.313C65.4926 158.43 65.8 158.489 65.7973 159.01C65.7712 163.227 65.7822 167.44 65.7794 171.654Z" fill="#FE4242"/>
<path d="M233.828 144.079V156.006H223.084V167.167H211.371V155.98H200.678C200.642 155.936 200.606 155.892 200.569 155.85V144.233C200.606 144.195 200.642 144.157 200.679 144.12H211.318V132.931H223.042V144.079H233.828Z" fill="#FE4242"/>
<path d="M275 144.079V156.006H264.256V167.167H252.544V155.98H241.85C241.814 155.936 241.779 155.892 241.741 155.85V144.233C241.779 144.195 241.814 144.157 241.851 144.12H252.49V132.931H264.214V144.079H275Z" fill="#FE4242"/>
<path d="M147.367 128.209V172.196H132.39V164.225H137.446V136.151H132.474L132.367 136.03V128.209H147.367Z" fill="#FE4242"/>
<path d="M91.5406 164.326V171.617C89.8608 171.617 88.2084 171.754 86.5904 171.576C85.1894 171.445 83.8165 171.103 82.5185 170.562C79.7737 169.372 78.3134 167.08 78.0321 164.189C77.7988 161.803 77.8949 159.384 77.8674 156.98C77.8468 155.248 77.3596 154.754 75.6139 154.756H74.5544V147.311C75.1761 147.248 75.8321 147.248 76.4538 147.103C77.4928 146.861 77.8523 146.368 77.8606 145.31C77.8743 143.328 77.8139 141.347 77.8921 139.367C77.9303 138.282 78.0961 137.205 78.3862 136.159C79.1794 133.372 81.0871 131.635 83.8428 130.803C86.3475 130.049 88.9207 130.191 91.5283 130.207V137.739L90.7762 137.778C88.9921 137.878 88.0163 138.854 87.9738 140.648C87.9326 142.401 87.9532 144.155 87.8983 145.907C87.8283 148.191 87.0227 150.028 84.68 150.863C84.6457 150.875 84.6278 150.931 84.5647 151.017C86.2377 151.564 87.3479 152.668 87.6814 154.393C87.8451 155.353 87.9369 156.324 87.9559 157.297C88.0012 158.39 87.9655 159.484 87.9655 160.577C87.9655 163.202 88.7999 164.073 91.4404 164.208L91.5406 164.326Z" fill="#FE4242"/>
<path d="M110.436 153.936C110.445 154.551 110.279 154.847 109.629 154.756C109.446 154.744 109.263 154.744 109.08 154.756C107.675 154.756 107.076 155.333 107.068 156.738C107.058 158.56 107.119 160.383 107.046 162.205C107.001 163.349 106.909 164.528 106.596 165.621C105.635 169.038 103.177 170.886 99.7681 171.402C97.7095 171.715 95.5878 171.694 93.4084 171.827V164.256C93.8696 164.188 94.3156 164.145 94.7506 164.054C96.1079 163.77 96.8834 162.932 96.9382 161.553C97.0137 159.64 96.9904 157.726 97.048 155.813C97.1167 153.52 98.0513 151.788 100.361 151.015C100.328 150.954 100.317 150.892 100.286 150.878C98.5289 150.226 97.457 148.992 97.1674 147.147C97.0544 146.341 96.9948 145.528 96.989 144.714C96.9602 143.462 96.9959 142.209 96.978 140.957C96.9437 138.76 96.0736 137.875 93.8668 137.758C93.7296 137.758 93.5992 137.735 93.4235 137.72V130.193C94.4185 130.193 95.4231 130.118 96.4113 130.21C98.0115 130.357 99.6474 130.438 101.179 130.87C104.554 131.802 106.696 134.489 106.932 137.977C107.084 140.243 107.091 142.525 107.046 144.799C107.017 146.241 107.5 147.345 109.505 147.241C109.78 147.228 110.054 147.241 110.382 147.241C110.397 147.494 110.422 147.711 110.422 147.925C110.423 149.929 110.401 151.933 110.436 153.936Z" fill="#FE4242"/>
<path d="M128.495 171.43C128.495 171.611 128.48 171.792 128.472 171.976L128.351 172.083H119.487V128.085H128.46C128.472 128.284 128.494 128.481 128.494 128.678C128.496 142.928 128.496 157.179 128.495 171.43Z" fill="#FE4242"/>
<path d="M163.354 171.43C163.354 171.611 163.339 171.792 163.331 171.976L163.21 172.083H154.346V128.085H163.318C163.331 128.284 163.353 128.481 163.353 128.678C163.355 142.928 163.355 157.179 163.354 171.43Z" fill="#FE4242"/>
<path d="M186.134 128H165.627V136.931H186.134V128Z" fill="#FE4242"/>
<path d="M186.132 145.354H165.615V154.285H186.132V145.354Z" fill="#FE4242"/>
<path d="M186.136 162.721H165.61V171.65H186.136V162.721Z" fill="#FE4242"/>
<path d="M132.367 136.031L132.474 136.151L132.367 136.031Z" fill="#FE6565"/>
<path d="M200.681 144.127C200.644 144.163 200.608 144.202 200.571 144.24C200.608 144.195 200.644 144.157 200.681 144.127Z" fill="#FE5959"/>
<path d="M241.852 144.127C241.815 144.163 241.78 144.202 241.743 144.24C241.78 144.195 241.815 144.157 241.852 144.127Z" fill="#FE5959"/>
<path d="M200.571 155.85L200.679 155.98C200.644 155.936 200.608 155.892 200.571 155.85Z" fill="#FE5959"/>
<path d="M241.743 155.85C241.78 155.892 241.815 155.936 241.851 155.98C241.815 155.936 241.78 155.892 241.743 155.85Z" fill="#FE5959"/>
<path d="M91.5406 164.326L91.4336 164.208L91.5406 164.326Z" fill="#FE6565"/>
<path d="M128.351 172.08L128.472 171.974L128.351 172.08Z" fill="#FE6565"/>
<path d="M163.21 172.08L163.331 171.974L163.21 172.08Z" fill="#FE6565"/>
</g>
<defs>
<clipPath id="clip0">
<rect width="250" height="44.1964" fill="white" transform="translate(25 128)"/>
</clipPath>
</defs>
</svg>
