<svg width="300" height="300" viewBox="0 0 300 300" fill="none" xmlns="http://www.w3.org/2000/svg">
<rect width="300" height="300" fill="#151515"/>
<g clip-path="url(#clip0)">
<path d="M275.993 165.884C275.998 168.48 275.221 171.018 273.763 173.164C270.718 177.773 266.454 179.916 260.996 179.8C260.48 179.789 259.964 179.8 259.446 179.8C259.446 174.658 259.446 169.518 259.406 164.376C259.39 162.36 259.063 160.351 257.895 158.679C255.725 155.57 252.715 154.016 248.865 154.043C241.777 154.092 234.69 154.061 227.602 154.056C224.164 154.056 221.192 154.964 218.964 157.86C217.551 159.691 216.671 161.634 216.662 163.934C216.642 169.223 216.631 174.512 216.631 179.8L210.168 179.829C210.168 175.02 210.259 170.211 210.122 165.397C210.071 163.55 209.88 161.532 209.096 159.913C207.324 156.285 204.27 154.141 200.144 154.083C192.613 153.99 185.082 154.019 177.563 154.083C173.884 154.11 171.053 155.961 169.097 158.928C167.99 160.599 167.509 162.644 167.513 164.731C167.513 169.762 167.513 174.791 167.513 179.829L143.09 179.809C143.07 178.219 143.072 176.627 143.023 175.04C142.999 174.267 143.3 174.008 144.064 174.025C145.945 174.065 147.829 174.036 149.71 174.036C152.448 174.036 152.412 174.036 152.41 171.27C152.41 170.382 152.118 170.109 151.26 170.124C148.899 170.164 146.536 170.109 144.173 170.149C143.304 170.162 142.999 169.842 143.016 168.981C143.056 166.947 143.05 164.911 143.016 162.877C143.016 162.107 143.304 161.838 144.062 161.849C146.239 161.883 148.419 161.861 150.596 161.861C153.431 161.861 153.409 161.861 153.243 159.023C153.201 158.33 152.913 158.135 152.286 158.135C147.967 158.148 143.648 158.148 139.329 158.135C138.682 158.135 138.398 158.357 138.414 159.045C138.447 160.451 138.414 161.856 138.414 163.264C138.398 168.774 138.38 174.286 138.361 179.798L131.574 179.76C132.643 177.53 133.295 175.122 133.499 172.655C134.008 166.994 130.936 158.99 123.288 157.871C120.409 157.451 117.556 157.562 114.911 158.608C111.292 160.04 109.013 162.917 107.917 166.643C106.588 171.135 106.798 175.544 108.978 179.774C108.535 179.785 108.092 179.805 107.649 179.805C85.2041 179.805 62.767 179.805 40.3373 179.805C37.2218 179.85 34.1834 178.832 31.7212 176.918C27.8584 173.961 26.0112 170.069 26.0112 165.226C26.0112 156.015 26.0311 146.798 26.0112 137.593C25.9968 134.735 26.8101 131.935 28.3523 129.531C29.6903 127.323 31.6738 125.58 34.0336 124.54C35.9008 123.725 38.0758 123.354 40.1291 123.283C45.1436 123.11 50.1649 123.226 55.1905 123.223C55.206 126.554 55.2259 129.884 55.2326 133.215C55.2326 136.838 55.2193 140.464 55.2614 144.094C55.2614 144.46 55.5936 145.12 55.8107 145.137C57.1153 145.235 58.4332 145.186 59.8618 145.186V143.717C59.8618 140.686 59.8839 137.653 59.8485 134.613C59.8485 133.792 60.0212 133.428 60.9404 133.441C64.4843 133.487 68.0282 133.487 71.572 133.441C72.4713 133.441 72.7083 133.756 72.695 134.605C72.6551 137.302 72.6817 140.002 72.6817 142.702C72.6817 145.191 72.6817 145.209 75.1934 145.186C77.5966 145.164 77.3087 145.559 77.3175 143.088C77.3441 136.47 77.3611 129.852 77.3685 123.235L84.4252 123.259C84.0376 124.009 83.588 124.733 83.2735 125.513C82.1416 128.319 81.9644 131.25 82.2612 134.229C82.5245 136.859 83.5614 139.352 85.2403 141.39C86.8838 143.388 89.03 144.889 91.7965 145.351C95.2362 145.926 98.6317 145.897 101.717 144.314C105 142.631 107.017 139.698 107.906 136.099C109.013 131.658 108.823 127.313 106.408 123.257L113.002 123.235C113.015 123.714 113.042 124.194 113.042 124.671C113.042 128.255 112.927 131.845 113.08 135.422C113.361 141.947 116.488 145.812 123.507 145.635C125.121 145.56 126.724 145.337 128.296 144.969C130.938 144.409 132.699 142.526 133.483 140.173C134.21 137.984 134.321 135.546 134.431 133.204C134.589 129.886 134.498 126.558 134.516 123.235H140.839C140.857 127.231 140.873 131.224 140.888 135.213C140.888 138.173 140.917 141.13 140.875 144.094C140.861 144.982 141.151 145.286 142.02 145.204C142.792 145.139 143.569 145.139 144.341 145.204C145.256 145.286 145.466 144.869 145.448 144.045C145.415 141.345 145.435 138.645 145.448 135.946C145.448 134.247 145.448 134.238 147.141 134.283C148.598 134.32 150.062 134.429 150.977 135.792C151.982 137.291 152.944 138.823 153.881 140.364C154.687 141.696 155.398 143.073 156.222 144.383C156.443 144.736 156.919 145.126 157.298 145.149C158.758 145.24 160.226 145.186 161.69 145.186L161.93 144.911C158.953 140.915 157.132 136.103 153.092 132.862C154.124 132.293 155.192 131.847 156.089 131.172C156.85 130.613 157.481 129.895 157.938 129.067C158.858 127.274 159.106 125.209 158.638 123.248L167.533 123.192C167.533 127.411 167.396 131.629 167.604 135.848C167.697 137.711 168.107 139.776 169.057 141.328C170.871 144.296 173.826 145.768 177.354 145.768C184.994 145.797 192.637 145.819 200.272 145.757C203.373 145.73 206.148 144.751 208.066 142.096C208.6 141.356 209.302 140.615 209.493 139.776C209.881 138.05 210.103 136.292 210.157 134.525C210.272 130.75 210.233 126.976 210.255 123.201H216.649C216.649 127.231 216.612 131.263 216.713 135.291C216.744 136.514 217.101 137.753 217.469 138.934C218.04 140.77 219.398 142.116 220.871 143.19C221.989 144.007 223.431 144.833 224.745 144.858C233.263 145.018 241.786 144.933 250.307 144.98C253.796 145 256.09 143.002 257.966 140.444C259.12 138.872 259.395 136.903 259.415 134.96C259.455 131.041 259.444 127.12 259.452 123.192C262.126 123.039 264.788 123.228 267.293 124.154C268.605 124.64 269.829 125.517 270.91 126.432C274.233 129.238 276.005 132.811 276.005 137.236C275.982 146.8 275.998 156.341 275.993 165.884Z" fill="#DB6DF6"/>
<path d="M210.038 120.81C210.009 119.376 210.038 117.941 210.053 116.507C209.785 113.883 208.813 111.663 206.711 109.906C204.99 108.472 203.167 107.631 200.903 107.637C192.783 107.666 184.672 107.637 176.557 107.666C175.711 107.653 174.87 107.792 174.074 108.077C170.546 109.442 168.264 111.996 167.768 115.779C167.447 118.221 167.589 120.719 167.522 123.192C167.522 127.411 167.385 131.629 167.593 135.848C167.686 137.711 168.096 139.776 169.046 141.328C170.86 144.296 173.815 145.768 177.343 145.768C184.982 145.797 192.626 145.819 200.261 145.757C203.362 145.73 206.137 144.751 208.055 142.096C208.589 141.356 209.291 140.615 209.482 139.776C209.87 138.051 210.092 136.292 210.146 134.525C210.261 130.75 210.221 126.976 210.244 123.201V123.177C210.182 122.393 210.06 121.603 210.038 120.81ZM194.467 139.194C190.108 140.575 185.842 140.391 181.895 138.008C180.123 136.938 178.774 135.328 177.844 133.346C176.132 129.7 175.85 125.981 176.769 122.116C177.558 118.812 179.179 115.899 181.975 114.058C184.96 112.089 188.34 110.826 192.083 111.532C193.038 111.711 193.957 112.089 194.912 112.269C196.084 112.491 196.38 113.186 196.216 114.251C196.168 114.571 196.181 114.902 196.161 115.362C193.525 114.158 190.945 113.608 188.187 114.029C183.702 114.709 180.951 117.435 179.567 121.578C178.444 124.931 178.482 128.352 179.997 131.634C182.243 136.501 186.863 138.739 192.134 137.509C193.463 137.198 194.772 136.707 196.084 136.301C196.509 138.261 196.327 138.599 194.467 139.194Z" fill="#AF2DAF"/>
<path d="M259.408 164.383C259.393 162.367 259.065 160.357 257.898 158.686C255.727 155.577 252.717 154.023 248.867 154.05C241.78 154.098 234.692 154.067 227.604 154.063C224.167 154.063 221.194 154.971 218.966 157.866C217.553 159.698 216.674 161.641 216.665 163.941C216.644 169.23 216.634 174.518 216.634 179.807C216.634 180.4 216.698 180.995 216.656 181.583C216.257 187.005 221.369 192.154 226.94 192.107C234.393 192.045 241.846 192.083 249.31 192.107C251.092 192.108 252.84 191.617 254.36 190.686C256.648 189.319 258.454 187.498 258.943 184.76C259.233 183.133 259.286 181.465 259.448 179.816C259.437 174.665 259.453 169.525 259.408 164.383ZM245.479 185.551H231.702V158.328H244.872V160.486H234.24V170.477H244.207V172.709H234.227V183.144H245.479V185.551Z" fill="#AF2DAF"/>
<path d="M210.133 165.413C210.082 163.566 209.891 161.547 209.107 159.929C207.335 156.301 204.281 154.156 200.155 154.098C192.624 154.005 185.093 154.034 177.574 154.098C173.895 154.125 171.064 155.977 169.108 158.943C168.001 160.615 167.52 162.66 167.524 164.747C167.524 169.778 167.524 174.807 167.524 179.845C167.524 180.397 167.513 180.955 167.524 181.508C167.717 187.485 171.713 191.803 177.394 192.025C184.98 192.323 192.591 192.196 200.188 192.054C203.898 191.985 206.759 190.073 208.731 186.903C209.039 186.406 209.44 185.89 209.524 185.349C209.807 183.53 209.967 181.694 210.173 179.862C210.182 175.027 210.281 170.218 210.133 165.413ZM198.965 178.41C198.099 180.004 196.571 181.379 195.063 182.456C191.793 184.791 187.975 185.136 184.063 184.962C182.557 184.896 181.047 184.951 179.412 184.951V157.751C179.529 157.697 179.633 157.62 179.72 157.622C184.026 157.642 188.358 157.26 192.6 158.317C193.738 158.599 194.814 159.247 195.829 159.898C199.424 162.227 200.449 165.864 200.753 169.86C201.004 172.824 200.382 175.797 198.965 178.41Z" fill="#AF2DAF"/>
<path d="M259.14 115.812C258.947 114.258 258.52 112.506 257.59 111.31C256.013 109.26 254.07 107.406 251.2 107.204L250.15 107.038C246.714 107.024 243.284 107 239.862 107C235.221 107 230.579 107.031 225.936 107.049L225.095 107.195C222.827 107.493 220.946 108.405 219.405 110.211C217.646 112.266 216.62 114.5 216.662 117.227C216.696 119.225 216.662 121.223 216.643 123.221C216.643 127.251 216.605 131.283 216.707 135.311C216.738 136.534 217.094 137.773 217.462 138.954C218.034 140.79 219.391 142.136 220.864 143.21C221.983 144.027 223.425 144.853 224.738 144.878C233.257 145.038 241.78 144.953 250.3 145C253.789 145.02 256.084 143.022 257.96 140.464C259.114 138.892 259.388 136.922 259.408 134.98C259.448 131.061 259.437 127.14 259.446 123.212C259.364 120.743 259.452 118.255 259.14 115.812ZM251.33 125.65C251.322 128.245 250.751 130.806 249.656 133.157C246.679 139.62 238.646 141.521 232.887 138.872C230.466 137.762 228.548 136.085 227.383 133.852C225.832 130.89 225.068 127.589 225.635 124.205C225.992 122.08 226.419 119.866 227.365 117.966C228.472 115.746 230.342 114.083 232.705 112.939C235.432 111.618 238.209 110.968 241.122 111.674C243.651 112.286 246.101 113.368 247.809 115.448C250.274 118.425 251.51 121.927 251.33 125.65Z" fill="#AF2CAF"/>
<path d="M123.31 157.871C120.431 157.451 117.578 157.562 114.934 158.608C111.314 160.04 109.035 162.917 107.939 166.643C106.61 171.135 106.82 175.544 109 179.774C109.886 181.772 111.569 183.073 113.292 184.168C118.072 187.203 126.371 186.983 130.708 180.87C130.981 180.486 131.3 180.136 131.594 179.76C132.663 177.53 133.315 175.122 133.519 172.655C134.031 166.994 130.958 158.99 123.31 157.871ZM126.67 179.159C126.495 179.443 126.132 179.603 125.855 179.825C123.268 182.7 117.403 182.913 114.982 179.825C114.269 178.883 113.283 178.048 112.894 176.978C111.631 173.544 111.786 170.031 112.871 166.554C113.565 164.334 116.772 161.852 119.133 161.818C120.588 161.798 122.154 161.67 123.481 162.134C126.79 163.288 127.959 166.19 128.5 169.361C129.093 172.846 128.522 176.143 126.67 179.159Z" fill="#FDFCFD"/>
<path d="M106.402 123.237C105.152 120.841 103.101 119.28 100.707 118.294C94.5938 115.777 88.2592 117.762 84.4185 123.239C84.0309 123.989 83.5813 124.713 83.2667 125.493C82.1349 128.299 81.9577 131.23 82.2545 134.209C82.5178 136.839 83.5547 139.332 85.2336 141.37C86.8771 143.368 89.0233 144.869 91.7897 145.331C95.2295 145.906 98.625 145.877 101.71 144.294C104.993 142.611 107.011 139.678 107.899 136.079C108.989 131.629 108.807 127.293 106.402 123.237ZM102.277 137.799C101.068 140.082 99.2806 141.616 96.5297 141.636C95.7567 141.636 94.9792 141.594 94.2106 141.661C92.4143 141.816 91.1098 140.883 89.9181 139.744C87.5149 137.453 86.8704 134.449 87.0387 131.343C87.1473 129.36 87.7298 127.346 88.4164 125.477C88.7487 124.571 89.814 123.936 90.5494 123.179C92.7289 120.777 98.0978 120.757 100.406 123.179C102.262 124.24 102.762 126.17 103.214 127.988C104.054 131.327 103.912 134.684 102.269 137.799H102.277Z" fill="#FDFCFE"/>
<path d="M77.3021 143.068C77.3021 145.539 77.5812 145.144 75.178 145.166C72.6663 145.189 72.6663 145.166 72.6663 142.682C72.6663 139.982 72.6397 137.282 72.6795 134.585C72.6928 133.736 72.4581 133.41 71.5566 133.421C68.0127 133.466 64.4688 133.466 60.925 133.421C60.0058 133.408 59.8175 133.772 59.833 134.593C59.8685 137.626 59.8485 140.659 59.8463 143.697V145.166C58.4177 145.166 57.0998 145.215 55.7952 145.117C55.5737 145.1 55.2481 144.44 55.2459 144.074C55.2038 140.451 55.226 136.825 55.2171 133.195C55.2171 129.864 55.1906 126.534 55.175 123.203V117.919H59.8884V129.203C60.0612 129.294 60.1232 129.356 60.1874 129.356C64.1211 129.374 68.0548 129.4 71.9863 129.356C72.2078 129.356 72.6197 128.812 72.6286 128.512C72.6773 126.736 72.6286 124.975 72.6286 123.208V117.915H77.3597V123.208C77.3405 129.832 77.3213 136.452 77.3021 143.068Z" fill="#FDFDFE"/>
<path d="M153.074 132.842C154.107 132.273 155.174 131.827 156.071 131.152C156.832 130.593 157.463 129.875 157.921 129.047C158.84 127.254 159.089 125.189 158.621 123.228C158.297 122.457 158.153 121.516 157.615 120.948C156.237 119.496 154.62 118.195 152.538 118.101C148.722 117.919 144.897 117.935 141.074 117.879C141.021 117.879 140.968 117.973 140.824 118.101V123.208C140.841 127.204 140.858 131.197 140.872 135.186C140.872 138.146 140.901 141.103 140.859 144.067C140.846 144.955 141.136 145.26 142.004 145.177C142.777 145.112 143.553 145.112 144.326 145.177C145.24 145.26 145.451 144.842 145.433 144.018C145.4 141.319 145.42 138.619 145.433 135.919C145.433 134.22 145.433 134.212 147.125 134.256C148.583 134.294 150.047 134.403 150.961 135.766C151.967 137.264 152.928 138.796 153.865 140.337C154.671 141.669 155.382 143.046 156.206 144.356C156.428 144.709 156.904 145.1 157.283 145.122C158.742 145.213 160.211 145.16 161.675 145.16L161.914 144.884C158.935 140.895 157.123 136.085 153.074 132.842ZM150.075 130.482C148.815 130.679 147.497 130.581 146.213 130.513C145.94 130.497 145.475 130.017 145.468 129.744C145.426 127.566 145.468 125.386 145.491 123.208V121.274C147.531 121.469 149.495 121.558 151.418 121.894C152.082 122.009 152.647 122.733 153.258 123.179C155.194 125.16 154.184 129.838 150.075 130.482Z" fill="#FEFDFE"/>
<path d="M134.416 133.184C134.305 135.526 134.194 137.964 133.468 140.153C132.684 142.515 130.923 144.389 128.281 144.949C126.708 145.317 125.105 145.54 123.492 145.615C116.473 145.786 113.345 141.92 113.064 135.402C112.911 131.825 113.033 128.235 113.026 124.651C113.026 124.174 113 123.694 112.987 123.215V117.879H117.698V123.208C117.698 127.053 117.653 130.897 117.698 134.74C117.718 136.738 118.251 138.659 119.64 140.146C120.289 140.819 121.107 141.304 122.008 141.55C122.94 141.796 123.984 141.585 124.976 141.641C126.761 141.745 127.922 140.752 128.726 139.365C129.268 138.435 129.776 137.327 129.816 136.279C129.979 131.927 129.964 127.566 130.013 123.208V117.879H134.502V123.208C134.482 126.538 134.573 129.869 134.416 133.184Z" fill="#FDFCFE"/>
<path d="M130.01 123.208C129.962 127.566 129.977 131.927 129.813 136.279C129.773 137.327 129.266 138.434 128.724 139.365C127.92 140.746 126.759 141.745 124.974 141.641C123.981 141.585 122.938 141.796 122.006 141.55C121.105 141.304 120.287 140.819 119.638 140.146C118.249 138.659 117.715 136.747 117.695 134.74C117.658 130.897 117.695 127.053 117.695 123.208H130.01Z" fill="#DB6DF6"/>
<path d="M143.032 162.875C143.063 164.909 143.07 166.945 143.032 168.979C143.014 169.84 143.32 170.16 144.188 170.147C146.549 170.107 148.912 170.162 151.276 170.122C152.133 170.107 152.425 170.389 152.425 171.268C152.425 174.034 152.463 174.034 149.725 174.034C147.843 174.034 145.96 174.063 144.08 174.023C143.315 174.005 143.014 174.265 143.039 175.038C143.087 176.625 143.085 178.217 143.105 179.807V185.475H138.387V179.807C138.405 174.296 138.423 168.785 138.44 163.273C138.44 161.865 138.467 160.46 138.44 159.054C138.425 158.375 138.708 158.142 139.355 158.144C143.674 158.156 147.993 158.156 152.312 158.144C152.939 158.144 153.227 158.33 153.269 159.032C153.435 161.869 153.458 161.869 150.622 161.869C148.445 161.869 146.266 161.892 144.088 161.858C143.32 161.841 143.021 162.105 143.032 162.875Z" fill="#FEFDFE"/>
<path d="M72.633 128.517C72.633 128.816 72.2188 129.358 71.9907 129.36C68.0592 129.4 64.1255 129.374 60.1918 129.36C60.1276 129.36 60.0656 129.298 59.8928 129.207V123.208H72.622C72.6352 124.984 72.6818 126.76 72.633 128.517Z" fill="#DA6DF5"/>
<path d="M210.259 123.186C210.182 122.393 210.055 121.603 210.038 120.81C210.009 119.376 210.038 117.941 210.053 116.507C210.12 118.183 210.188 119.86 210.248 121.536C210.266 122.098 210.257 122.635 210.259 123.186Z" fill="#997999"/>
<path d="M251.206 107.204L250.15 107.038L251.206 107.204Z" fill="#A436A4"/>
<path d="M225.936 107.049L225.095 107.195L225.936 107.049Z" fill="#A436A4"/>
<path d="M196.161 115.348C193.525 114.143 190.945 113.592 188.187 114.016C183.702 114.709 180.951 117.435 179.567 121.578C178.446 124.931 178.482 128.352 179.997 131.634C182.243 136.501 186.863 138.739 192.134 137.509C193.463 137.198 194.772 136.707 196.084 136.301C196.509 138.261 196.325 138.599 194.469 139.187C190.108 140.568 185.831 140.384 181.895 138.002C180.123 136.934 178.774 135.322 177.844 133.339C176.132 129.693 175.85 125.977 176.77 122.109C177.558 118.805 179.179 115.892 181.975 114.052C184.96 112.082 188.34 110.819 192.083 111.525C193.038 111.705 193.957 112.082 194.912 112.262C196.084 112.484 196.38 113.179 196.216 114.245C196.168 114.567 196.181 114.897 196.161 115.348Z" fill="#FCF9FC"/>
<path d="M231.702 158.328H244.872V160.486H234.24V170.477H244.207V172.709H234.227V183.144H245.478V185.553H231.702V158.328Z" fill="#FDFCFD"/>
<path d="M200.744 169.86C200.44 165.864 199.415 162.227 195.82 159.898C194.817 159.247 193.729 158.599 192.591 158.317C188.356 157.26 184.017 157.651 179.711 157.622C179.616 157.622 179.52 157.698 179.403 157.751V184.951C181.047 184.951 182.557 184.896 184.054 184.962C187.959 185.136 191.784 184.791 195.054 182.456C196.562 181.377 198.081 180.013 198.956 178.41C200.373 175.797 200.995 172.824 200.744 169.86ZM195.362 179.238C194.59 180.169 193.636 180.932 192.559 181.48C191.482 182.028 190.305 182.349 189.1 182.425C186.757 182.589 184.391 182.46 181.928 182.46V159.924C186.269 159.762 190.63 159.452 194.367 162.007C195.641 162.875 196.697 164.449 197.233 165.939C198.932 170.635 198.542 175.286 195.362 179.238Z" fill="#FDFAFD"/>
<path d="M247.804 115.437C246.096 113.365 243.647 112.284 241.117 111.663C238.209 110.956 235.432 111.607 232.701 112.928C230.337 114.072 228.468 115.73 227.36 117.955C226.415 119.855 225.987 122.069 225.631 124.194C225.064 127.577 225.832 130.879 227.378 133.841C228.543 136.074 230.461 137.746 232.882 138.861C238.641 141.51 246.675 139.609 249.651 133.146C250.746 130.799 251.319 128.241 251.33 125.65C251.51 121.927 250.274 118.425 247.804 115.437ZM247.412 131.931C245.419 136.796 239.66 139.136 234.756 137.182C231.046 135.701 229.181 132.671 228.421 128.878C227.602 124.793 228.328 120.886 230.756 117.597C232.384 115.377 234.854 114.072 237.773 113.883C242.723 113.561 246.57 116.407 247.99 120.959C248.464 122.48 248.402 124.169 248.655 126.418C248.342 127.87 248.19 130.024 247.412 131.922V131.931Z" fill="#FCFAFC"/>
<path d="M126.67 179.159C126.495 179.443 126.132 179.603 125.855 179.825H114.982C114.269 178.883 113.283 178.048 112.893 176.978C111.631 173.544 111.786 170.031 112.871 166.554C113.565 164.334 116.772 161.852 119.133 161.818C120.588 161.798 122.154 161.67 123.481 162.134C126.79 163.288 127.959 166.19 128.5 169.361C129.093 172.846 128.522 176.143 126.67 179.159Z" fill="#DB6DF6"/>
<path d="M102.268 137.799C101.068 140.082 99.2805 141.616 96.5295 141.636C95.7565 141.636 94.9791 141.594 94.2105 141.661C92.4142 141.816 91.1096 140.883 89.918 139.744C87.5148 137.453 86.8703 134.449 87.0386 131.343C87.1471 129.36 87.7297 127.346 88.4163 125.477C88.7485 124.571 89.8139 123.936 90.5493 123.179H100.421C102.277 124.24 102.778 126.17 103.23 127.988C104.054 131.327 103.912 134.684 102.268 137.799Z" fill="#DB6DF6"/>
<path d="M150.075 130.481C148.815 130.679 147.497 130.581 146.212 130.513C145.94 130.497 145.475 130.017 145.468 129.744C145.426 127.566 145.468 125.386 145.49 123.208L153.258 123.179C155.194 125.16 154.184 129.838 150.075 130.481Z" fill="#DB6FF5"/>
<path d="M181.93 182.46V159.924C186.271 159.762 190.633 159.452 194.371 162.007C195.643 162.875 196.699 164.449 197.235 165.939C198.934 170.635 198.533 175.286 195.364 179.238C194.592 180.169 193.638 180.932 192.561 181.48C191.484 182.028 190.307 182.349 189.102 182.425C186.756 182.591 184.391 182.46 181.93 182.46Z" fill="#AF2DAF"/>
<path d="M248.657 126.41C248.342 127.87 248.189 130.024 247.412 131.922C245.419 136.787 239.66 139.127 234.756 137.173C231.046 135.692 229.181 132.662 228.421 128.87C227.602 124.784 228.328 120.877 230.756 117.588C232.384 115.368 234.853 114.063 237.773 113.874C242.723 113.552 246.57 116.398 247.99 120.95C248.464 122.471 248.402 124.16 248.657 126.41Z" fill="#AF2DAF"/>
</g>
<defs>
<clipPath id="clip0">
<rect width="250" height="85.1893" fill="white" transform="translate(26 107)"/>
</clipPath>
</defs>
</svg>
