<svg width="300" height="300" viewBox="0 0 300 300" fill="none" xmlns="http://www.w3.org/2000/svg">
<rect width="300" height="300" fill="#151515"/>
<g clip-path="url(#clip0)">
<path d="M42.6684 141.866H51.2505L40.0192 127.313L50.6908 115.746H42.5565L32.4445 126.604V115.746H25.1311V141.866H32.4445V135.336L35.2057 132.388L42.6684 141.866ZM53.1891 141.866H60.5771V115.746H53.1891V141.866ZM78.8559 142.388C83.6693 142.388 87.5499 140.634 90.0872 137.463L85.3857 133.209C83.7439 135.187 81.729 136.269 79.229 136.269C74.938 136.269 71.9529 133.284 71.9529 128.806C71.9529 124.328 74.938 121.343 79.229 121.343C81.729 121.343 83.7439 122.425 85.3857 124.403L90.0872 120.149C87.5499 116.978 83.6693 115.224 78.8559 115.224C70.5723 115.224 64.4902 120.858 64.4902 128.806C64.4902 136.754 70.5723 142.388 78.8559 142.388ZM110.919 141.866H119.501L108.269 127.313L118.941 115.746H110.807L100.695 126.604V115.746H93.3813V141.866H100.695V135.336L103.456 132.388L110.919 141.866ZM124.088 142.201C126.514 142.201 128.342 140.448 128.342 137.985C128.342 135.448 126.514 133.806 124.088 133.806C121.7 133.806 119.835 135.448 119.835 137.985C119.835 140.448 121.7 142.201 124.088 142.201ZM152.044 142.388C159.806 142.388 163.611 138.507 163.611 133.955C163.611 124.328 148.798 127.313 148.798 123.321C148.798 122.015 149.917 120.97 153.014 120.97C155.291 120.97 157.753 121.642 160.253 122.985L162.529 117.5C159.955 116.007 156.447 115.224 153.052 115.224C145.291 115.224 141.485 119.03 141.485 123.694C141.485 133.396 156.335 130.373 156.335 134.515C156.335 135.784 155.141 136.642 152.082 136.642C149.059 136.642 145.776 135.597 143.462 134.067L141.037 139.515C143.5 141.231 147.753 142.388 152.044 142.388ZM172.219 141.866H179.607V121.604H187.592V115.746H164.197V121.604H172.219V141.866ZM208.585 141.866H216.272L204.705 115.746H197.429L185.899 141.866H193.436L195.488 136.791H206.533L208.585 141.866ZM197.653 131.343L201.011 122.985L204.369 131.343H197.653ZM234.523 141.866H242.434L236.8 133.657C240.046 132.09 241.911 129.254 241.911 125.41C241.911 119.44 237.434 115.746 230.307 115.746H218.367V141.866H225.755V134.925H229.785L234.523 141.866ZM234.449 125.41C234.449 127.799 232.919 129.216 229.859 129.216H225.755V121.567H229.859C232.919 121.567 234.449 122.985 234.449 125.41ZM251.183 141.866H258.571V121.604H266.556V115.746H243.16V121.604H251.183V141.866ZM270.682 142.201C273.107 142.201 274.936 140.448 274.936 137.985C274.936 135.448 273.107 133.806 270.682 133.806C268.294 133.806 266.428 135.448 266.428 137.985C266.428 140.448 268.294 142.201 270.682 142.201ZM79.1518 187.388H99.0025V181.53H86.5398V161.269H79.1518V187.388ZM109.239 181.679V176.903H120.844V171.381H109.239V166.978H122.411V161.269H101.926V187.388H122.896V181.679H109.239ZM146.548 187.388H154.235L142.668 161.269H135.392L123.862 187.388H131.399L133.451 182.313H144.496L146.548 187.388ZM135.616 176.866L138.974 168.507L142.332 176.866H135.616ZM172.486 187.388H180.397L174.762 179.179C178.008 177.612 179.874 174.776 179.874 170.933C179.874 164.963 175.397 161.269 168.27 161.269H156.329V187.388H163.717V180.448H167.747L172.486 187.388ZM172.411 170.933C172.411 173.321 170.882 174.739 167.822 174.739H163.717V167.09H167.822C170.882 167.09 172.411 168.507 172.411 170.933ZM201.562 161.269V175.187L190.032 161.269H183.95V187.388H191.189V173.47L202.719 187.388H208.801V161.269H201.562ZM216.661 187.724C219.087 187.724 220.915 185.97 220.915 183.507C220.915 180.97 219.087 179.328 216.661 179.328C214.273 179.328 212.408 180.97 212.408 183.507C212.408 185.97 214.273 187.724 216.661 187.724Z" fill="white"/>
</g>
<defs>
<clipPath id="clip0">
<rect width="250" height="72.7612" fill="white" transform="translate(25 115)"/>
</clipPath>
</defs>
</svg>
