<svg width="300" height="300" viewBox="0 0 300 300" fill="none" xmlns="http://www.w3.org/2000/svg">
<rect width="300" height="300" fill="#151515"/>
<path d="M181.348 244.637C181.348 246.06 181.888 247.424 182.849 248.43C183.811 249.435 185.115 250 186.475 250H204.617C205.977 250 207.282 249.435 208.243 248.43C209.205 247.424 209.745 246.06 209.745 244.637V128.608C209.745 127.184 209.205 125.819 208.244 124.811C207.283 123.803 205.979 123.234 204.617 123.23H185.021C183.659 123.234 182.355 123.803 181.394 124.811C180.433 125.819 179.893 127.184 179.893 128.608V129.972C179.893 131.394 180.434 132.758 181.395 133.764C182.357 134.77 183.661 135.335 185.021 135.335H191.018C192.382 135.335 193.69 135.901 194.655 136.91C195.619 137.919 196.161 139.286 196.161 140.713L196.011 233.944C195.999 235.356 195.456 236.705 194.499 237.7C193.542 238.695 192.248 239.256 190.898 239.26H186.49C185.126 239.26 183.818 239.826 182.854 240.835C181.889 241.843 181.348 243.211 181.348 244.637Z" fill="white"/>
<path d="M103.412 244.637C103.412 246.06 102.872 247.424 101.911 248.43C100.949 249.435 99.6446 250 98.2847 250H80.1427C78.7814 250 77.4756 249.435 76.5116 248.43C75.5475 247.425 75.004 246.061 75 244.637V128.608C75.004 127.183 75.547 125.818 76.5106 124.81C77.4742 123.802 78.78 123.234 80.1427 123.23H99.7241C101.087 123.234 102.393 123.802 103.356 124.81C104.32 125.818 104.863 127.183 104.867 128.608V129.972C104.863 131.396 104.319 132.76 103.355 133.765C102.391 134.77 101.085 135.335 99.7241 135.335H93.7267C92.3654 135.339 91.0612 135.907 90.1 136.915C89.1388 137.923 88.599 139.289 88.599 140.713L88.7489 233.944C88.7489 234.649 88.8821 235.347 89.141 235.998C89.3998 236.648 89.779 237.239 90.257 237.736C90.7349 238.233 91.3021 238.626 91.9259 238.893C92.5496 239.16 93.2177 239.295 93.8917 239.291H98.2997C99.6532 239.299 100.949 239.865 101.906 240.866C102.863 241.867 103.405 243.222 103.412 244.637Z" fill="white"/>
<path d="M109.846 229.961C109.842 230.645 109.579 231.299 109.116 231.78C108.652 232.262 108.025 232.533 107.372 232.533H98.6757C98.0248 232.529 97.4016 232.256 96.9413 231.775C96.481 231.294 96.2207 230.642 96.2168 229.961V174.377C96.2168 173.695 96.4758 173.041 96.937 172.558C97.3981 172.076 98.0235 171.805 98.6757 171.805H108.077C108.729 171.805 109.354 172.076 109.815 172.558C110.276 173.041 110.535 173.695 110.535 174.377V174.988C110.531 175.669 110.271 176.321 109.811 176.802C109.351 177.283 108.727 177.556 108.077 177.56H105.198C104.544 177.56 103.917 177.83 103.454 178.312C102.99 178.794 102.728 179.448 102.724 180.131L102.799 224.819C102.803 225.502 103.065 226.156 103.529 226.638C103.992 227.119 104.619 227.39 105.273 227.39H107.372C107.696 227.388 108.017 227.453 108.317 227.581C108.617 227.709 108.89 227.898 109.12 228.138C109.35 228.376 109.533 228.66 109.657 228.974C109.782 229.287 109.846 229.622 109.846 229.961Z" fill="white"/>
<path d="M141.901 156.769C164.101 156.769 182.098 152.648 182.098 147.565C182.098 142.482 164.101 138.361 141.901 138.361C119.701 138.361 101.704 142.482 101.704 147.565C101.704 152.648 119.701 156.769 141.901 156.769Z" fill="white"/>
<path d="M130.821 121.066C113.174 111.658 137.748 90.8671 130.566 77.3983C128.977 74.3878 121.975 77.0848 123.459 79.8601C128.692 89.6912 118.271 98.566 117.327 108.319C116.652 115.375 119.261 122.289 125.438 125.566C128.047 126.962 134.299 122.916 130.821 121.066Z" fill="white"/>
<path d="M141.42 94.5675C143.729 88.6249 145.528 82.0237 143.924 75.6577C141.765 66.9869 135.287 61.4677 134.928 51.8404C134.793 48.4535 127.596 50.2724 127.701 53.032C127.833 58.8736 129.464 64.5707 132.424 69.527C137.552 78.1665 138.166 85.0969 134.493 94.5362C133.099 98.0952 140.311 97.1074 141.3 94.5362L141.42 94.5675Z" fill="white"/>
<path d="M236.539 171.022V159.958H225.959V171.022H236.539ZM236.539 209.546V199.471H225.959V210.534H229.36L225.959 221.598H231.154L236.539 209.546Z" fill="white"/>
</svg>
