<svg width="300" height="300" viewBox="0 0 300 300" fill="none" xmlns="http://www.w3.org/2000/svg">
<rect width="300" height="300" fill="#151515"/>
<path d="M155.122 43.3638H145.824C144.113 43.3638 142.725 44.7513 142.725 46.4629C142.725 48.1746 144.113 49.5621 145.824 49.5621H155.122C156.833 49.5621 158.221 48.1746 158.221 46.4629C158.221 44.7513 156.833 43.3638 155.122 43.3638Z" stroke="black" stroke-width="2"/>
<path fill-rule="evenodd" clip-rule="evenodd" d="M118.962 37.1653H183.011C189.857 37.1653 195.408 42.7155 195.408 49.562V91.9174H200.573V49.562C200.573 39.8628 192.711 32 183.011 32H118.962C109.262 32 101.4 39.8628 101.4 49.562V91.9174H106.565V49.562C106.565 42.7155 112.115 37.1653 118.962 37.1653ZM106.565 152.868H101.4V187.992C101.4 197.691 109.262 205.554 118.962 205.554H183.011C192.711 205.554 200.573 197.691 200.573 187.992V152.868H195.408V187.992C195.408 194.838 189.857 200.388 183.011 200.388H118.962C112.115 200.388 106.565 194.838 106.565 187.992V152.868Z" fill="#3A44A1"/>
<path d="M123.612 89.8512L94.6863 118.777L123.612 147.702" stroke="#FCD207" stroke-width="10"/>
<path d="M176.808 147.702L205.733 118.777L176.808 89.8512" stroke="#FCD207" stroke-width="10"/>
<path d="M150.472 193.157C153.61 193.157 156.154 190.613 156.154 187.475C156.154 184.337 153.61 181.793 150.472 181.793C147.334 181.793 144.791 184.337 144.791 187.475C144.791 190.613 147.334 193.157 150.472 193.157Z" stroke="black" stroke-width="2"/>
<path d="M65.2879 269.603L63.1693 263.591H50.9219L48.8033 269.603H42.609L53.3432 240.447H60.748L71.4822 269.603H65.2879ZM52.6975 258.526H61.3937L57.0557 246.158L52.6975 258.526ZM88.007 240.447C90.7915 240.447 93.0311 241.355 94.726 243.171C96.4209 244.974 97.2683 247.206 97.2683 249.87C97.2683 252.574 96.4276 254.8 94.7462 256.548C93.0648 258.284 90.8184 259.152 88.007 259.152H81.9338V269.603H75.8808V240.447H88.007ZM86.9982 254.087C88.4779 254.087 89.5876 253.711 90.3274 252.957C91.0672 252.191 91.4372 251.134 91.4372 249.789C91.4372 248.484 91.0605 247.449 90.3072 246.682C89.5674 245.902 88.4644 245.512 86.9982 245.512H81.9338V254.087H86.9982ZM114.479 240.447C117.264 240.447 119.503 241.355 121.198 243.171C122.893 244.974 123.74 247.206 123.74 249.87C123.74 252.574 122.9 254.8 121.218 256.548C119.537 258.284 117.29 259.152 114.479 259.152H108.406V269.603H102.353V240.447H114.479ZM113.47 254.087C114.95 254.087 116.06 253.711 116.799 252.957C117.539 252.191 117.909 251.134 117.909 249.789C117.909 248.484 117.533 247.449 116.779 246.682C116.04 245.902 114.937 245.512 113.47 245.512H108.406V254.087H113.47ZM144.361 241.194V244.483H137.077V269.603H133.486V244.483H126.182V241.194H144.361ZM149.971 269.603V241.194H153.582V269.603H149.971ZM177.37 241.194V244.483H170.086V269.603H166.495V244.483H159.192V241.194H177.37ZM192.705 269.986C189.692 269.986 187.217 269.112 185.28 267.363C183.356 265.615 182.394 263.221 182.394 260.181V241.194H186.007V259.677C186.007 261.963 186.625 263.704 187.862 264.902C189.113 266.099 190.728 266.698 192.705 266.698C194.682 266.698 196.303 266.099 197.568 264.902C198.832 263.691 199.464 261.949 199.464 259.677V241.194H203.076V260.181C203.076 263.221 202.101 265.615 200.15 267.363C198.213 269.112 195.732 269.986 192.705 269.986ZM211.429 269.603V241.194H220.589C223.414 241.194 225.822 241.806 227.813 243.03C229.817 244.254 231.297 245.922 232.252 248.034C233.221 250.132 233.704 252.58 233.704 255.378C233.704 257.477 233.422 259.393 232.857 261.129C232.305 262.851 231.491 264.344 230.416 265.608C229.339 266.873 227.961 267.854 226.28 268.554C224.611 269.253 222.714 269.603 220.589 269.603H211.429ZM215.041 266.314H220.469C223.603 266.314 225.963 265.346 227.55 263.409C229.151 261.472 229.952 258.795 229.952 255.378C229.952 251.988 229.151 249.325 227.55 247.388C225.95 245.451 223.589 244.483 220.469 244.483H215.041V266.314ZM255.959 244.483H244.419V253.785H254.587V257.033H244.419V266.314H255.959V269.603H240.726V241.194H255.959V244.483Z" fill="white"/>
</svg>
