<svg width="300" height="300" viewBox="0 0 300 300" fill="none" xmlns="http://www.w3.org/2000/svg">
<rect width="300" height="300" fill="#151515"/>
<g clip-path="url(#clip0)">
<path d="M141.395 51.2688L69.4669 92.7977C66.8915 94.2827 64.753 96.4201 63.2665 98.9946C61.7801 101.569 60.9984 104.49 61 107.463V190.521C60.9967 193.494 61.7777 196.415 63.2643 198.99C64.7509 201.565 66.8904 203.702 69.4669 205.186L141.395 246.731C143.969 248.217 146.889 249 149.862 249C152.834 249 155.754 248.217 158.328 246.731L230.338 205.186C232.915 203.702 235.054 201.565 236.541 198.99C238.027 196.415 238.809 193.494 238.805 190.521V107.463C238.807 104.49 238.025 101.569 236.539 98.9946C235.052 96.4201 232.914 94.2827 230.338 92.7977L158.328 51.2688C155.754 49.7825 152.834 49.0001 149.862 49.0001C146.889 49.0001 143.969 49.7825 141.395 51.2688Z" fill="#FAFBFB"/>
<path d="M227.017 193.546V104.454L149.861 59.9001L72.7219 104.454V193.546L149.861 238.083L227.017 193.546Z" fill="#2C2C2C"/>
<path d="M149.96 85.3173L94.8513 117.13V117.409L149.96 148.975V85.3173Z" fill="#D3EBE0"/>
<path d="M149.96 148.975V212.633L150.01 212.65L205.151 180.804V180.574L149.96 148.975Z" fill="#5EBF94"/>
<path d="M149.96 148.975L94.8513 117.409V180.771L149.96 148.975Z" fill="#48BA86"/>
<path d="M94.8513 180.771V180.804L149.96 212.633V148.975L94.8513 180.771Z" fill="#ADDBC8"/>
<path d="M205.184 117.113L149.96 149.008V85.2844L205.184 117.113Z" fill="#86CCAC"/>
</g>
<defs>
<clipPath id="clip0">
<rect width="177.739" height="200" fill="white" transform="translate(61 49)"/>
</clipPath>
</defs>
</svg>
