<svg
  width="34"
  height="24"
  viewBox="0 0 34 24"
  fill="none"
  xmlns="http://www.w3.org/2000/svg"
>
  <path
    d="M33.6642 0.804051C33.6642 0.798988 33.6642 0.794488 33.6628 0.789426C33.6614 0.784363 33.6608 0.771707 33.6602 0.762988C33.6571 0.72394 33.6492 0.685412 33.6369 0.648239C33.6352 0.643176 33.6369 0.637832 33.6338 0.63277C33.6307 0.627707 33.631 0.628551 33.6301 0.626301C33.6141 0.585446 33.5926 0.546942 33.5663 0.511832C33.5604 0.503957 33.5542 0.496926 33.5477 0.489332C33.5221 0.458322 33.4929 0.430553 33.4605 0.406645C33.4572 0.404113 33.4543 0.40102 33.451 0.39877C33.4148 0.374963 33.3757 0.356049 33.3345 0.34252C33.325 0.339145 33.3154 0.336332 33.3064 0.33352C33.2631 0.32053 33.2183 0.31362 33.1731 0.312988H0.828221C0.783046 0.31362 0.738179 0.32053 0.694908 0.33352C0.685064 0.336332 0.675783 0.339145 0.666783 0.34252C0.625658 0.356049 0.586506 0.374963 0.550346 0.39877C0.546971 0.40102 0.544158 0.404113 0.540783 0.406645C0.508462 0.430553 0.479182 0.458322 0.453596 0.489332C0.447408 0.496926 0.440939 0.503957 0.435033 0.511832C0.408698 0.546942 0.387223 0.585446 0.371189 0.626301C0.371189 0.628551 0.368377 0.63052 0.367533 0.63277C0.366689 0.63502 0.366127 0.643176 0.364439 0.648239C0.352078 0.685412 0.34424 0.72394 0.341096 0.762988C0.341096 0.771988 0.338564 0.780707 0.338564 0.789426C0.338564 0.798144 0.337158 0.798988 0.337158 0.804051V23.1958C0.337158 23.2022 0.338846 23.2084 0.339127 23.2149C0.339948 23.2326 0.341731 23.2503 0.344471 23.2678C0.346721 23.2821 0.348689 23.2959 0.352064 23.3105C0.356406 23.3276 0.361663 23.3444 0.367814 23.3609C0.372596 23.3741 0.377096 23.3873 0.383002 23.4C0.390801 23.4166 0.399534 23.4327 0.409158 23.4483C0.415908 23.4596 0.422658 23.4711 0.430252 23.4818C0.441156 23.4967 0.452894 23.511 0.465408 23.5245C0.474689 23.5347 0.483971 23.5448 0.493533 23.5544C0.499439 23.5597 0.503939 23.5662 0.510127 23.5715C0.516314 23.5769 0.520252 23.5763 0.524752 23.58C0.563149 23.6109 0.60601 23.6358 0.651877 23.6539C0.661721 23.6579 0.671846 23.6601 0.681971 23.6632C0.726339 23.6777 0.772562 23.6858 0.819221 23.6871C0.822596 23.6871 0.825689 23.6888 0.829064 23.6888H0.835533H33.1658H33.1723C33.1756 23.6888 33.1787 23.6871 33.1818 23.6871C33.2286 23.6858 33.2749 23.6777 33.3194 23.6632C33.3292 23.6601 33.339 23.6579 33.3475 23.6539C33.3934 23.6358 33.4364 23.6109 33.4749 23.58C33.4794 23.5763 33.485 23.5752 33.4895 23.5715C33.494 23.5679 33.5002 23.5597 33.5061 23.5544C33.5162 23.5448 33.5255 23.535 33.5342 23.5245C33.5467 23.511 33.5585 23.4967 33.5694 23.4818C33.577 23.4711 33.5837 23.4599 33.5905 23.4483C33.6001 23.4327 33.6088 23.4166 33.6166 23.4C33.6225 23.3873 33.627 23.3741 33.6318 23.3609C33.638 23.3444 33.6432 23.3276 33.6476 23.3105C33.6509 23.2965 33.6529 23.2824 33.6552 23.2678C33.6579 23.2503 33.6597 23.2326 33.6605 23.2149C33.6605 23.2084 33.6625 23.2022 33.6625 23.1958L33.6642 0.804051ZM11.8813 10.9639L16.6789 15.0918C16.7682 15.1686 16.8821 15.2109 17 15.2109C17.1178 15.2109 17.2317 15.1686 17.321 15.0918L22.1188 10.9639L32.1066 22.7036H1.89388L11.8813 10.9639ZM1.32041 21.8584V1.87702L11.136 10.3218L1.32041 21.8584ZM22.8642 10.3218L32.6798 1.87702V21.8584L22.8642 10.3218ZM31.8448 1.29624L21.859 9.88871C21.8573 9.89011 21.855 9.89095 21.8533 9.89264C21.8517 9.89433 21.85 9.89658 21.848 9.89827L17.0001 14.0695L12.1522 9.89827C12.1502 9.89658 12.1488 9.89433 12.1468 9.89264L12.1412 9.88871L2.15488 1.29624H31.8448Z"
    fill="white"
  />
</svg>
