<svg
  width="32"
  height="32"
  viewBox="0 0 32 32"
  fill="none"
  xmlns="http://www.w3.org/2000/svg"
>
  <mask
    id="instagram"
    mask-type="alpha"
    maskUnits="userSpaceOnUse"
    x="0"
    y="0"
    width="32"
    height="32"
  >
    <path
      d="M23.3378 0H8.66209C3.88573 0 0 3.88573 0 8.66209V23.3381C0 28.1142 3.88573 31.9999 8.66209 31.9999H23.3381C28.1142 31.9999 31.9999 28.1142 31.9999 23.3381V8.66209C31.9999 3.88573 28.1142 0 23.3378 0V0ZM30.124 23.3381C30.124 27.0798 27.0798 30.124 23.3378 30.124H8.66209C4.92016 30.124 1.87597 27.0798 1.87597 23.3381V8.66209C1.87597 4.92016 4.92016 1.87597 8.66209 1.87597H23.3381C27.0798 1.87597 30.124 4.92016 30.124 8.66209V23.3381Z"
      fill="black"
    />
    <path
      d="M16 7.25C11.1753 7.25 7.25024 11.175 7.25024 15.9997C7.25024 20.8244 11.1753 24.7495 16 24.7495C20.8247 24.7495 24.7497 20.8244 24.7497 15.9997C24.7497 11.175 20.8247 7.25 16 7.25ZM16 22.8735C12.21 22.8735 9.12622 19.79 9.12622 15.9997C9.12622 12.2097 12.21 9.12597 16 9.12597C19.7903 9.12597 22.8737 12.2097 22.8737 15.9997C22.8737 19.79 19.7903 22.8735 16 22.8735Z"
      fill="black"
    />
    <path
      d="M24.959 4.14258C23.5332 4.14258 22.3735 5.30249 22.3735 6.72802C22.3735 8.1538 23.5332 9.31371 24.959 9.31371C26.3848 9.31371 27.5447 8.1538 27.5447 6.72802C27.5447 5.30224 26.3848 4.14258 24.959 4.14258ZM24.959 7.43749C24.5679 7.43749 24.2495 7.11913 24.2495 6.72802C24.2495 6.33667 24.5679 6.01855 24.959 6.01855C25.3503 6.01855 25.6687 6.33667 25.6687 6.72802C25.6687 7.11913 25.3503 7.43749 24.959 7.43749Z"
      fill="black"
    />
  </mask>
  <g mask="url(#instagram)">
    <rect x="-9" y="-6" width="50" height="48" fill="white" />
  </g>
</svg>
