<svg
  width="30"
  height="25"
  viewBox="0 0 30 25"
  fill="none"
  xmlns="http://www.w3.org/2000/svg"
>
  <path
    d="M11.4153 24.4915C6.40823 24.4915 2.45087 23.6458 0.557558 22.1719L0.520708 22.1431L0.487292 22.1108C0.037539 21.6758 -0.109861 21.1052 0.0833153 20.5454L0.100939 20.499C0.335314 19.9323 0.909579 19.5509 1.53191 19.5474C2.81273 19.5259 3.93334 19.3783 4.95026 19.0918C3.32817 18.3626 2.20139 17.0999 1.53099 15.2723C1.30554 14.7024 1.50009 14.0705 2.01965 13.6937C2.14783 13.6005 2.29271 13.5302 2.44606 13.4831C1.54473 12.4772 0.878908 11.3327 0.50606 10.1222L0.494387 10.0846L0.486376 10.0461C0.359805 9.43391 0.642931 8.80445 1.16181 8.53342C1.37947 8.41261 1.61591 8.35 1.85326 8.34469C1.59737 7.81191 1.41129 7.26498 1.30097 6.71472C0.994722 5.18985 1.24741 3.66122 2.0517 2.17131L2.23778 1.81155C2.38678 1.5237 2.67151 1.32147 2.99973 1.26992C3.32794 1.21859 3.6644 1.32347 3.89946 1.55069L4.23844 1.87881C6.91635 4.59269 9.31503 5.88038 13.4621 6.76141C13.6473 5.2226 14.3356 3.7922 15.4459 2.66647C16.7672 1.32701 18.5316 0.575412 20.4142 0.549746H20.4266C21.8001 0.549746 23.5039 1.30776 24.5343 1.8423C25.4182 1.56264 26.4832 1.12965 27.5883 0.671878C28.1053 0.43735 28.7427 0.544658 29.1492 0.937602C29.5477 1.3228 29.6583 1.86598 29.4468 2.39388C29.3665 2.61005 29.2754 2.82223 29.174 3.02976C29.3253 3.0968 29.4637 3.18774 29.5807 3.3008C29.9343 3.64263 30.0817 4.17762 29.956 4.66393L29.9425 4.71018C29.5191 6.02928 28.7057 7.10368 27.6299 7.77806C27.4503 17.0266 20.2455 24.4915 11.4153 24.4915ZM2.24465 21.2247C4.02878 22.2004 7.42882 22.7907 11.4153 22.7907C15.2479 22.7907 18.8647 21.2001 21.5991 18.3119C24.356 15.4 25.8742 11.5332 25.8742 7.42361V7.37737C25.8742 7.00523 26.0861 6.6656 26.4272 6.49082C27.1191 6.13659 27.6794 5.53323 28.0437 4.76173C27.6679 4.81903 27.2859 4.67323 27.0518 4.36923C26.7796 4.01589 26.7767 3.53864 27.0442 3.18221C27.1886 2.98972 27.3196 2.78948 27.4363 2.58239C26.4821 2.9698 25.5759 3.31717 24.7893 3.54794C24.5034 3.63157 24.1848 3.59883 23.9236 3.45789C22.5231 2.70364 21.2187 2.25273 20.4323 2.25051C17.5303 2.29344 15.1707 4.69602 15.1707 7.60902C15.1707 7.91015 15.0325 8.19247 14.7919 8.38385C14.5512 8.57501 14.2381 8.65157 13.9323 8.59316C9.15047 7.68248 6.31691 6.31691 3.37029 3.45457C2.948 4.43273 2.83264 5.41796 3.02788 6.39081C3.22586 7.37627 3.75252 8.36372 4.55109 9.24629C4.85458 9.58127 4.89487 10.0605 4.65134 10.4386C4.40872 10.8154 3.94753 10.9915 3.50418 10.8767C3.15766 10.7869 2.83905 10.6689 2.53693 10.5174C3.15239 11.8097 4.21097 13.0049 5.54169 13.8864C5.92735 14.1419 6.08849 14.6183 5.93376 15.0449C5.77881 15.4721 5.34599 15.7471 4.87816 15.7135C4.36844 15.677 3.91686 15.5834 3.50121 15.4256C4.24736 16.8945 5.43961 17.7028 7.27638 18.0116C7.71378 18.0853 8.05435 18.4192 8.12393 18.8424C8.19374 19.2657 7.97699 19.6852 7.58492 19.8863C6.01936 20.6886 4.30824 21.1191 2.24465 21.2247Z"
    fill="white"
  />
</svg>
